<svg width="242" height="52" viewBox="0 0 242 52" fill="none" xmlns="http://www.w3.org/2000/svg">
<path fill-rule="evenodd" clip-rule="evenodd" d="M151.242 7.06796V14.1359H141.663C135.445 14.1359 132.084 14.2245 132.084 14.3883C132.084 14.5272 131.744 14.6408 131.328 14.6408C130.912 14.6408 130.572 14.7544 130.572 14.8932C130.572 15.032 130.398 15.1456 130.185 15.1456C129.684 15.1456 128.051 16.7803 128.051 17.2829C128.051 17.4957 127.938 17.6699 127.799 17.6699C127.635 17.6699 127.547 21.5005 127.547 28.657V39.6444L128.675 40.7736C129.295 41.3948 129.975 41.9029 130.187 41.9029C130.399 41.9029 130.572 42.0165 130.572 42.1553C130.572 42.2942 130.912 42.4078 131.328 42.4078C131.744 42.4078 132.084 42.5214 132.084 42.6602C132.084 42.8248 136.201 42.9126 143.932 42.9126H155.779V21.4563V0H153.51H151.242V7.06796ZM222.829 21.4563V42.9126H225.098H227.366V31.0485V19.1845H234.316C240.003 19.1845 241.332 19.1188 241.626 18.8237C242.125 18.325 242.125 14.9954 241.626 14.4966C241.332 14.2016 240.003 14.1359 234.316 14.1359H227.366V7.06796V0H225.098H222.829V21.4563ZM36.298 14.3883C36.298 14.5272 35.9577 14.6408 35.5418 14.6408C35.1258 14.6408 34.7856 14.7544 34.7856 14.8932C34.7856 15.032 34.6104 15.1456 34.3961 15.1456C34.1818 15.1456 33.7281 15.4246 33.3878 15.7653C33.0475 16.1061 32.769 16.5605 32.769 16.775C32.769 16.9896 32.6556 17.165 32.5169 17.165C32.3783 17.165 32.2649 17.3922 32.2649 17.6699C32.2649 17.9476 32.1514 18.1748 32.0128 18.1748C31.8482 18.1748 31.7607 22.3459 31.7607 30.183C31.7607 40.2538 31.8189 42.2495 32.1209 42.5519C32.3695 42.8011 33.0715 42.9126 34.3896 42.9126C36.1298 42.9126 36.298 42.8682 36.298 42.4078C36.298 42.1301 36.4114 41.9029 36.55 41.9029C36.7144 41.9029 36.8021 37.9481 36.8021 30.5437V19.1845H44.8126C52.534 19.1845 52.8365 19.2026 53.1866 19.6893C53.3865 19.967 53.7517 20.1942 53.9985 20.1942C54.2604 20.1942 54.447 20.381 54.447 20.6432C54.447 20.8904 54.6738 21.2561 54.9511 21.4563C55.3022 21.7097 55.4552 22.1098 55.4552 22.7742C55.4552 23.2988 55.5687 23.7282 55.7073 23.7282C55.8709 23.7282 55.9594 27.0938 55.9594 33.3204V42.9126H58.228H60.4966V32.5631C60.4966 25.8316 60.4084 22.2136 60.2445 22.2136C60.1059 22.2136 59.9925 21.8728 59.9925 21.4563C59.9925 21.0398 59.879 20.699 59.7404 20.699C59.6018 20.699 59.4883 20.4718 59.4883 20.1942C59.4883 19.9165 59.3749 19.6893 59.2363 19.6893C59.0976 19.6893 58.9842 19.4871 58.9842 19.2403C58.9842 18.9931 58.7573 18.6274 58.4801 18.4272C58.2028 18.227 57.9759 17.91 57.9759 17.7224C57.9759 17.2829 57.3541 16.6602 56.9152 16.6602C56.7279 16.6602 56.4113 16.433 56.2114 16.1553C56.0115 15.8777 55.6463 15.6505 55.3995 15.6505C55.153 15.6505 54.9511 15.5369 54.9511 15.3981C54.9511 15.2592 54.7242 15.1456 54.447 15.1456C54.1697 15.1456 53.9428 15.032 53.9428 14.8932C53.9428 14.7544 53.4891 14.6408 52.9345 14.6408C52.38 14.6408 51.9263 14.5272 51.9263 14.3883C51.9263 14.2255 49.1535 14.1359 44.1121 14.1359C39.0707 14.1359 36.298 14.2255 36.298 14.3883ZM68.0587 14.3883C68.0587 14.5272 67.7434 14.6408 67.3582 14.6408C66.9468 14.6408 66.5077 14.8493 66.2942 15.1456C66.0943 15.4233 65.7291 15.6505 65.4823 15.6505C65.2204 15.6505 65.0339 15.8373 65.0339 16.0996C65.0339 16.3467 64.807 16.7124 64.5297 16.9126C64.2338 17.1264 64.0256 17.5662 64.0256 17.9781C64.0256 18.3638 63.9122 18.6796 63.7735 18.6796C63.6097 18.6796 63.5214 22.2136 63.5214 28.7767C63.5214 35.3398 63.6097 38.8738 63.7735 38.8738C63.9122 38.8738 64.0256 39.101 64.0256 39.3786C64.0256 39.6563 64.139 39.8835 64.2776 39.8835C64.4163 39.8835 64.5297 40.0589 64.5297 40.2735C64.5297 40.7786 65.6524 41.9029 66.1568 41.9029C66.3711 41.9029 66.5463 42.0165 66.5463 42.1553C66.5463 42.2942 66.8866 42.4078 67.3025 42.4078C67.7184 42.4078 68.0587 42.5214 68.0587 42.6602C68.0587 42.8243 71.5037 42.9126 77.8894 42.9126H87.7201V45.1845V47.4563H78.1415H68.5628V49.7282V52H79.0303H89.4979L90.6254 50.8706C91.2458 50.2497 91.7532 49.5681 91.7532 49.3561C91.7532 49.1443 91.8666 48.9709 92.0053 48.9709C92.1706 48.9709 92.2573 43.5858 92.2573 33.3204C92.2573 23.0549 92.1706 17.6699 92.0053 17.6699C91.8666 17.6699 91.7532 17.4965 91.7532 17.2847C91.7532 16.6337 89.573 14.6408 88.861 14.6408C88.5108 14.6408 88.2242 14.5272 88.2242 14.3883C88.2242 14.2243 84.6953 14.1359 78.1415 14.1359C71.5877 14.1359 68.0587 14.2243 68.0587 14.3883ZM104.357 14.3883C104.357 14.5272 103.903 14.6408 103.348 14.6408C102.794 14.6408 102.34 14.7544 102.34 14.8932C102.34 15.032 102.113 15.1456 101.836 15.1456C101.559 15.1456 101.332 15.2592 101.332 15.3981C101.332 15.5369 101.105 15.6505 100.828 15.6505C100.55 15.6505 100.324 15.7641 100.324 15.9029C100.324 16.0417 100.15 16.1553 99.9389 16.1553C99.4385 16.1553 97.2987 18.2982 97.2987 18.7993C97.2987 19.011 97.1853 19.1845 97.0466 19.1845C96.908 19.1845 96.7946 19.4116 96.7946 19.6893C96.7946 19.967 96.6812 20.1942 96.5425 20.1942C96.4039 20.1942 96.2904 20.4214 96.2904 20.699C96.2904 20.9767 96.177 21.2039 96.0384 21.2039C95.8982 21.2039 95.7863 21.8771 95.7863 22.7184C95.7863 23.5598 95.6744 24.233 95.5342 24.233C95.3724 24.233 95.2822 26.6732 95.2822 31.0485C95.2822 35.4239 95.3724 37.8641 95.5342 37.8641C95.6729 37.8641 95.7863 38.3184 95.7863 38.8738C95.7863 39.4291 95.8997 39.8835 96.0384 39.8835C96.177 39.8835 96.2904 40.062 96.2904 40.2801C96.2904 40.7667 96.8896 41.3981 97.3512 41.3981C97.5384 41.3981 97.855 41.6252 98.0549 41.9029C98.308 42.2545 98.7075 42.4078 99.371 42.4078C99.8948 42.4078 100.324 42.5214 100.324 42.6602C100.324 42.8197 102.088 42.9126 105.113 42.9126C108.138 42.9126 109.902 42.8197 109.902 42.6602C109.902 42.5198 110.574 42.4078 111.415 42.4078C112.255 42.4078 112.927 42.2957 112.927 42.1553C112.927 42.0165 113.381 41.9029 113.935 41.9029C114.49 41.9029 114.944 41.7893 114.944 41.6505C114.944 41.5117 115.17 41.3981 115.448 41.3981C115.725 41.3981 115.952 41.2845 115.952 41.1456C115.952 41.0068 116.129 40.8932 116.346 40.8932C116.563 40.8932 117.293 40.3252 117.968 39.6311C118.644 38.9369 119.26 38.3689 119.338 38.3689C119.417 38.3689 119.481 39.2777 119.481 40.3883V42.4078H121.749H124.018V30.0388C124.018 21.9612 123.931 17.6699 123.766 17.6699C123.627 17.6699 123.514 17.4427 123.514 17.165C123.514 16.8874 123.4 16.6602 123.262 16.6602C123.123 16.6602 123.01 16.4817 123.01 16.2636C123.01 15.7535 122.403 15.1456 121.893 15.1456C121.676 15.1456 121.497 15.032 121.497 14.8932C121.497 14.7544 121.271 14.6408 120.993 14.6408C120.716 14.6408 120.489 14.5272 120.489 14.3883C120.489 14.2253 117.632 14.1359 112.423 14.1359C107.213 14.1359 104.357 14.2253 104.357 14.3883ZM163.845 14.3883C163.845 14.5272 163.671 14.6408 163.459 14.6408C162.957 14.6408 161.324 16.2755 161.324 16.7781C161.324 16.9909 161.211 17.165 161.072 17.165C160.908 17.165 160.82 21.1198 160.82 28.5243C160.82 35.9287 160.908 39.8835 161.072 39.8835C161.211 39.8835 161.324 40.1107 161.324 40.3883C161.324 40.666 161.438 40.8932 161.576 40.8932C161.715 40.8932 161.828 41.1204 161.828 41.3981C161.828 41.7345 161.997 41.9029 162.333 41.9029C162.61 41.9029 162.837 42.0165 162.837 42.1553C162.837 42.2942 163.177 42.4078 163.593 42.4078C164.009 42.4078 164.349 42.5214 164.349 42.6602C164.349 42.824 167.626 42.9126 173.676 42.9126H183.002V45.1845V47.4563H174.18H165.357V49.7282V52H175.322H185.288L186.161 51.1248C186.642 50.6437 187.035 50.0757 187.035 49.8627C187.035 49.6499 187.149 49.4757 187.287 49.4757C187.453 49.4757 187.54 43.9223 187.54 33.3204C187.54 22.7184 187.453 17.165 187.287 17.165C187.149 17.165 187.035 16.9909 187.035 16.7781C187.035 16.2755 185.403 14.6408 184.901 14.6408C184.689 14.6408 184.515 14.5272 184.515 14.3883C184.515 14.2243 180.902 14.1359 174.18 14.1359C167.458 14.1359 163.845 14.2243 163.845 14.3883ZM3.02483 14.8932C3.02483 15.032 2.84964 15.1456 2.63538 15.1456C2.13099 15.1456 1.00828 16.2699 1.00828 16.775C1.00828 16.9896 0.894846 17.165 0.756208 17.165C0.61757 17.165 0.504138 17.3922 0.504138 17.6699C0.504138 17.9476 0.390707 18.1748 0.252069 18.1748C0.0879721 18.1748 0 21.8771 0 28.7767C0 35.6763 0.0879721 39.3786 0.252069 39.3786C0.390707 39.3786 0.504138 39.6058 0.504138 39.8835C0.504138 40.1612 0.61757 40.3883 0.756208 40.3883C0.894846 40.3883 1.00828 40.5668 1.00828 40.7849C1.00828 41.2951 1.61526 41.9029 2.12469 41.9029C2.34248 41.9029 2.52069 42.0165 2.52069 42.1553C2.52069 42.2942 2.86099 42.4078 3.2769 42.4078C3.69281 42.4078 4.03311 42.5214 4.03311 42.6602C4.03311 42.8243 7.47814 42.9126 13.8638 42.9126H23.6945V40.3883V37.8641H14.1159H4.53725V35.5922V33.3204H14.62C21.1738 33.3204 24.7028 33.232 24.7028 33.068C24.7028 32.9291 24.9894 32.8155 25.3395 32.8155C26.0516 32.8155 28.2318 30.8226 28.2318 30.1716C28.2318 29.9598 28.3452 29.7864 28.4838 29.7864C28.6441 29.7864 28.7359 27.767 28.7359 24.233C28.7359 20.699 28.6441 18.6796 28.4838 18.6796C28.3452 18.6796 28.2318 18.3926 28.2318 18.042C28.2318 17.3289 26.2417 15.1456 25.5916 15.1456C25.3801 15.1456 25.2069 15.032 25.2069 14.8932C25.2069 14.7286 21.3419 14.6408 14.1159 14.6408C6.88981 14.6408 3.02483 14.7286 3.02483 14.8932ZM194.597 14.8932C194.597 15.032 194.371 15.1456 194.093 15.1456C193.816 15.1456 193.589 15.2592 193.589 15.3981C193.589 15.5369 193.411 15.6505 193.193 15.6505C192.684 15.6505 192.077 16.2583 192.077 16.7685C192.077 16.9866 191.963 17.165 191.825 17.165C191.686 17.165 191.573 17.3922 191.573 17.6699C191.573 17.9476 191.459 18.1748 191.321 18.1748C191.156 18.1748 191.068 21.8771 191.068 28.7767C191.068 35.6763 191.156 39.3786 191.321 39.3786C191.459 39.3786 191.573 39.5528 191.573 39.7656C191.573 40.2682 193.205 41.9029 193.707 41.9029C193.919 41.9029 194.093 42.0165 194.093 42.1553C194.093 42.2942 194.434 42.4078 194.85 42.4078C195.265 42.4078 195.606 42.5214 195.606 42.6602C195.606 42.824 198.967 42.9126 205.184 42.9126H214.763V40.3883V37.8641H205.184H195.606V35.5922V33.3204H205.941C212.662 33.3204 216.275 33.232 216.275 33.068C216.275 32.9291 216.502 32.8155 216.78 32.8155C217.057 32.8155 217.284 32.7019 217.284 32.5631C217.284 32.4243 217.462 32.3107 217.68 32.3107C218.189 32.3107 218.796 31.7028 218.796 31.1927C218.796 30.9746 218.91 30.7961 219.048 30.7961C219.187 30.7961 219.3 30.3417 219.3 29.7864C219.3 29.2311 219.414 28.7767 219.552 28.7767C219.712 28.7767 219.804 27.0097 219.804 23.9806C219.804 20.9515 219.712 19.1845 219.552 19.1845C219.414 19.1845 219.3 18.7301 219.3 18.1748C219.3 17.6194 219.187 17.165 219.048 17.165C218.91 17.165 218.796 16.9896 218.796 16.775C218.796 16.2699 217.673 15.1456 217.169 15.1456C216.955 15.1456 216.78 15.032 216.78 14.8932C216.78 14.7286 212.915 14.6408 205.688 14.6408C198.462 14.6408 194.597 14.7286 194.597 14.8932ZM119.481 28.2718V37.8641H109.902H100.324V30.0388C100.324 24.9903 100.413 22.2136 100.576 22.2136C100.714 22.2136 100.828 22.0394 100.828 21.8266C100.828 21.6136 101.221 21.0456 101.702 20.5645C102.182 20.0831 102.749 19.6893 102.962 19.6893C103.174 19.6893 103.348 19.5757 103.348 19.4369C103.348 19.2981 103.575 19.1845 103.853 19.1845C104.13 19.1845 104.357 19.0709 104.357 18.932C104.357 18.7695 107.045 18.6796 111.919 18.6796H119.481V28.2718ZM23.6945 23.9806V28.7767H14.4761C6.82276 28.7767 5.19641 28.7154 4.89745 28.416C4.61261 28.131 4.53725 27.1276 4.53725 23.6199V19.1845H14.1159H23.6945V23.9806ZM87.7201 28.5243V37.8641H78.1415H68.5628V28.5243V19.1845H78.1415H87.7201V28.5243ZM151.242 28.5243V37.8641H141.663H132.084V28.5243V19.1845H141.663H151.242V28.5243ZM183.002 28.5243V37.8641H174.18H165.357V28.5243V19.1845H174.18H183.002V28.5243ZM214.763 23.9806V28.7767H205.545C197.891 28.7767 196.265 28.7154 195.966 28.416C195.681 28.131 195.606 27.1276 195.606 23.6199V19.1845H205.184H214.763V23.9806Z" fill="#F0ABA0"/>
</svg>
