<svg width="15" height="25" viewBox="0 0 15 25" fill="none" xmlns="http://www.w3.org/2000/svg">
<path d="M13.749 0.005L10.507 0C6.865 0 4.511 2.415 4.511 6.153V8.989H1.251C1.11574 8.989 0.986016 9.04273 0.890373 9.13838C0.794729 9.23402 0.740997 9.36374 0.740997 9.499V13.609C0.740997 13.891 0.970997 14.119 1.251 14.119H4.511V24.49C4.511 24.772 4.739 25 5.021 25H9.274C9.40926 25 9.53898 24.9463 9.63462 24.8506C9.73027 24.755 9.784 24.6253 9.784 24.49V14.12H13.594C13.7293 14.12 13.859 14.0663 13.9546 13.9706C14.0503 13.875 14.104 13.7453 14.104 13.61L14.106 9.5C14.106 9.36474 14.0523 9.23502 13.9566 9.13938C13.861 9.04373 13.7313 8.99 13.596 8.99H9.783V6.584C9.783 5.428 10.059 4.841 11.565 4.841H13.748C13.8833 4.841 14.013 4.78727 14.1086 4.69162C14.2043 4.59598 14.258 4.46626 14.258 4.331V0.514C14.258 0.378913 14.2044 0.249343 14.109 0.153729C14.0135 0.0581138 13.8841 0.00426488 13.749 0.004V0.005Z" fill="white"/>
</svg>
