<svg width="24" height="25" viewBox="0 0 24 25" fill="none" xmlns="http://www.w3.org/2000/svg">
<g clip-path="url(#clip0)">
<path d="M19 0.5H5C3.67392 0.5 2.40215 1.02678 1.46447 1.96447C0.526784 2.90215 0 4.17392 0 5.5L0 19.5C0 20.8261 0.526784 22.0979 1.46447 23.0355C2.40215 23.9732 3.67392 24.5 5 24.5H19C19.6566 24.5 20.3068 24.3707 20.9134 24.1194C21.52 23.8681 22.0712 23.4998 22.5355 23.0355C22.9998 22.5712 23.3681 22.02 23.6194 21.4134C23.8707 20.8068 24 20.1566 24 19.5V5.5C24 4.84339 23.8707 4.19321 23.6194 3.58658C23.3681 2.97995 22.9998 2.42876 22.5355 1.96447C22.0712 1.50017 21.52 1.13188 20.9134 0.880602C20.3068 0.629329 19.6566 0.5 19 0.5ZM8 19.5H5V8.5H8V19.5ZM6.5 7.232C5.534 7.232 4.75 6.442 4.75 5.468C4.75 4.494 5.534 3.704 6.5 3.704C7.466 3.704 8.25 4.494 8.25 5.468C8.25 6.442 7.467 7.232 6.5 7.232ZM20 19.5H17V13.896C17 10.528 13 10.783 13 13.896V19.5H10V8.5H13V10.265C14.396 7.679 20 7.488 20 12.741V19.5Z" fill="white"/>
</g>
<defs>
<clipPath id="clip0">
<rect width="24" height="25" fill="white"/>
</clipPath>
</defs>
</svg>
