<svg width="25" height="25" viewBox="0 0 25 25" fill="none" xmlns="http://www.w3.org/2000/svg">
<path d="M24.976 7.35C24.917 6.022 24.702 5.109 24.395 4.317C24.0807 3.48101 23.5868 2.7242 22.948 2.1C22.3235 1.46564 21.5688 0.974342 20.736 0.66C19.94 0.351 19.032 0.136 17.704 0.077C16.365 0.015 15.94 0 12.546 0C9.152 0 8.727 0.015 7.394 0.073C6.066 0.132 5.152 0.347 4.361 0.654C3.52507 0.967926 2.76826 1.46155 2.144 2.1C1.50969 2.72453 1.0184 3.47921 0.704 4.312C0.395 5.108 0.18 6.017 0.121 7.345C0.0600001 8.683 0.0440001 9.108 0.0440001 12.502C0.0440001 15.897 0.0590001 16.322 0.117 17.655C0.176 18.983 0.391 19.896 0.698 20.688C1.016 21.528 1.509 22.28 2.144 22.905C2.76849 23.5394 3.52318 24.0307 4.356 24.345C5.152 24.653 6.061 24.868 7.389 24.927C8.722 24.985 9.147 25 12.542 25C15.936 25 16.361 24.985 17.694 24.927C19.022 24.868 19.936 24.653 20.727 24.346C21.5579 24.0247 22.3125 23.5334 22.9425 22.9035C23.5724 22.2735 24.0637 21.5189 24.385 20.688C24.692 19.892 24.907 18.983 24.965 17.655C25.025 16.321 25.039 15.897 25.039 12.502C25.039 9.108 25.034 8.683 24.976 7.35ZM22.724 17.557C22.671 18.778 22.465 19.437 22.294 19.877C22.0856 20.4161 21.7669 20.9056 21.3583 21.3143C20.9496 21.7229 20.4601 22.0416 19.921 22.25C19.481 22.421 18.817 22.627 17.601 22.68C16.282 22.739 15.887 22.753 12.551 22.753C9.216 22.753 8.815 22.739 7.501 22.68C6.281 22.627 5.621 22.421 5.181 22.25C4.63875 22.051 4.14828 21.7325 3.746 21.318C3.33209 20.9147 3.01335 20.4241 2.813 19.882C2.643 19.442 2.437 18.778 2.383 17.562C2.325 16.243 2.31 15.848 2.31 12.512C2.31 9.177 2.325 8.776 2.383 7.462C2.437 6.242 2.643 5.582 2.813 5.142C3.01228 4.59846 3.33311 4.10764 3.751 3.707C4.1542 3.29293 4.64482 2.97417 5.187 2.774C5.627 2.604 6.29 2.398 7.507 2.344C8.825 2.286 9.221 2.271 12.557 2.271C15.897 2.271 16.292 2.286 17.606 2.344C18.827 2.398 19.486 2.604 19.926 2.774C20.468 2.974 20.961 3.292 21.362 3.707C21.777 4.112 22.094 4.6 22.295 5.143C22.465 5.583 22.67 6.246 22.725 7.463C22.783 8.781 22.797 9.177 22.797 12.513C22.797 15.848 22.783 16.238 22.724 17.557Z" fill="white"/>
<path d="M12.547 6.08207C10.8439 6.0826 9.21079 6.75938 8.00655 7.96362C6.8023 9.16786 6.12553 10.801 6.125 12.5041C6.12553 14.2071 6.8023 15.8403 8.00655 17.0445C9.21079 18.2488 10.8439 18.9255 12.547 18.9261C14.2501 18.9255 15.8832 18.2488 17.0875 17.0445C18.2917 15.8403 18.9685 14.2071 18.969 12.5041C18.9685 10.801 18.2917 9.16786 17.0875 7.96362C15.8832 6.75938 14.2501 6.0826 12.547 6.08207ZM12.547 16.6701C11.9944 16.6785 11.4457 16.5769 10.9327 16.3713C10.4198 16.1656 9.95284 15.8599 9.55914 15.4721C9.16544 15.0843 8.85281 14.622 8.63947 14.1122C8.42613 13.6024 8.31633 13.0552 8.31646 12.5026C8.31659 11.9499 8.42665 11.4028 8.64024 10.8931C8.85383 10.3834 9.16667 9.92126 9.56056 9.53361C9.95445 9.14596 10.4215 8.84054 10.9346 8.63511C11.4476 8.42969 11.9964 8.32838 12.549 8.33707C13.6428 8.35428 14.686 8.80095 15.4534 9.58066C16.2208 10.3604 16.6507 11.4106 16.6505 12.5046C16.6502 13.5985 16.2197 14.6485 15.452 15.4279C14.6843 16.2072 13.6409 16.6534 12.547 16.6701ZM20.721 5.82707C20.7284 6.02853 20.695 6.22941 20.623 6.4177C20.551 6.60599 20.4418 6.77783 20.3018 6.92295C20.1619 7.06808 19.9942 7.18351 19.8087 7.26236C19.6231 7.3412 19.4236 7.38184 19.222 7.38184C19.0204 7.38184 18.8209 7.3412 18.6353 7.26236C18.4498 7.18351 18.2821 7.06808 18.1422 6.92295C18.0022 6.77783 17.893 6.60599 17.821 6.4177C17.749 6.22941 17.7156 6.02853 17.723 5.82707C17.7372 5.43899 17.9013 5.07153 18.1809 4.80199C18.4604 4.53245 18.8337 4.38184 19.222 4.38184C19.6103 4.38184 19.9836 4.53245 20.2631 4.80199C20.5427 5.07153 20.7068 5.43899 20.721 5.82707Z" fill="white"/>
</svg>
