<svg width="226" height="48" viewBox="0 0 226 48" fill="none" xmlns="http://www.w3.org/2000/svg">
<path d="M5.599 3.79288L5.795 3.65788C5.196 2.78488 4.679 2.22788 3.97 2.00488H2.184L5.6 3.79288H5.599ZM5.599 3.79288L5.802 3.65988C6.066 3.48588 6.275 3.31688 6.485 3.14588L6.595 3.05788C6.843 2.85788 7.10701 2.65388 7.478 2.44088C7.99501 2.13688 8.309 2.03488 8.684 2.00488H9.933L10.786 2.00688C11.355 2.00988 11.924 2.01188 12.492 2.00488H12.949C13.421 2.01488 13.656 2.06288 13.884 2.16688C13.998 2.21888 14.11 2.28488 14.249 2.36688L14.261 2.37388C14.398 2.45488 14.561 2.55088 14.775 2.66388C15.404 2.98888 15.881 3.45588 16.368 3.96388C16.568 4.16888 16.717 4.27388 16.839 4.30488C16.894 4.32012 16.9523 4.31803 17.006 4.29888C17.0604 4.27722 17.1098 4.24453 17.151 4.20288C17.2294 4.1217 17.3016 4.0348 17.367 3.94288L17.457 3.82588C17.577 3.67388 17.721 3.50388 17.919 3.34488C18.964 2.48188 20.049 2.08588 21.308 2.00488H25.106L5.6 3.79288H5.599ZM0.463005 3.14288C0.755005 2.63288 1.216 2.23788 1.931 2.06588L27.219 2.64988C31.092 5.01288 30.966 8.98788 30.827 13.4139C30.801 14.2569 30.773 15.1169 30.773 15.9849C30.773 16.3629 30.791 16.7919 30.81 17.2499C30.926 20.1309 31.09 24.1579 27.27 23.7549C24.315 23.4439 24.498 19.1799 24.619 16.3689V16.3679C24.64 15.8739 24.659 15.4249 24.659 15.0509C24.659 14.6159 24.681 14.1269 24.704 13.6109C24.834 10.6979 25.002 6.89788 21.552 6.91588C18.107 6.94188 18.279 10.8459 18.402 13.6659C18.423 14.1299 18.442 14.5659 18.444 14.9489C18.444 15.4639 18.452 16.0089 18.461 16.5629C18.482 17.9329 18.504 19.3699 18.403 20.6059H18.398C18.266 22.1079 17.515 23.4859 15.914 23.7289C14.798 23.8969 14.01 23.6799 13.455 23.2199C12.901 22.7599 12.579 22.0539 12.397 21.2409C12.215 20.4289 12.173 19.5099 12.177 18.6229C12.179 18.1789 12.192 17.7439 12.205 17.3339L12.208 17.2619C12.22 16.8789 12.232 16.5199 12.233 16.1979C12.233 15.6109 12.24 15.0099 12.247 14.4049C12.263 13.0929 12.279 11.7609 12.223 10.5109C12.17 9.33088 11.839 8.47588 11.358 7.89188C10.9154 7.35009 10.2812 6.99951 9.587 6.91288C8.273 6.73988 6.862 7.45988 6.363 8.67088C6.303 8.81588 6.255 9.07088 6.215 9.40588C6.176 9.74288 6.146 10.1619 6.124 10.6379C6.079 11.5889 6.064 12.7679 6.064 13.9669C6.064 15.5689 6.091 17.2069 6.11 18.3839C6.12001 18.9669 6.12801 19.4369 6.13 19.7329C6.13 21.1749 5.73301 22.8069 4.294 23.4859C2.874 24.1659 1.12 23.6579 0.340005 22.2799C0.157005 21.9349 0.0560049 21.3369 0.00500488 20.6469V16.6969L0.0120049 15.6019C0.0300049 12.5959 0.0500049 9.55788 0.00500488 6.55988V4.90488C0.0450049 4.27488 0.170005 3.65188 0.463005 3.14288ZM123.617 10.6029L123.573 10.6079H123.622L131.93 10.5459V10.5599L131.935 10.5429C132.052 10.1139 131.876 9.58688 131.596 9.10288C131.336 8.65861 131.008 8.25831 130.623 7.91688L130.62 7.92088L130.623 7.91688C129.726 7.16688 128.829 6.86188 127.99 6.84988C127.151 6.83788 126.371 7.11988 125.709 7.54388C125.084 7.94744 124.548 8.47539 124.135 9.09488C123.766 9.65488 123.574 10.2079 123.617 10.6029ZM131.725 2.36988C133.42 3.19288 134.679 4.09588 135.877 5.57788C136.334 6.14688 136.849 6.95588 137.27 7.81788C137.692 8.67988 138.019 9.59288 138.1 10.3689V13.1509C138.024 13.7749 137.829 14.2409 137.364 14.5409C136.898 14.8419 136.16 14.9799 134.998 14.9439L134.997 14.9489V14.9439C133.477 14.9145 131.956 14.9105 130.436 14.9319C129.498 14.9399 128.562 14.9479 127.634 14.9439C127.518 14.9439 127.332 14.9389 127.103 14.9319L126.858 14.9249C126.519 14.9159 126.12 14.9069 125.731 14.9089C125.342 14.9089 124.962 14.9209 124.659 14.9529C124.528 14.9645 124.398 14.9855 124.27 15.0159C124.188 15.031 124.111 15.066 124.045 15.1179L124.049 15.1219C123.511 15.6699 124.679 17.0009 125.156 17.3259L125.153 17.3299C126.39 18.2019 127.56 18.5049 128.654 18.4879C129.747 18.4709 130.764 18.1339 131.696 17.7269C132.126 17.5389 132.537 17.3359 132.93 17.1419L133.03 17.0919C133.452 16.8849 133.853 16.6899 134.23 16.5389C134.984 16.2389 135.645 16.1149 136.204 16.4159C137.051 16.8759 137.546 17.4759 137.725 18.1359C137.904 18.7979 137.768 19.5199 137.349 20.2259C136.512 21.6359 134.549 22.9729 131.736 23.5969C126.873 24.6789 122.929 23.4809 120.428 20.8929C117.927 18.3059 116.869 14.3289 117.777 9.85188L117.772 9.85088H117.777C118.082 8.33988 119.046 6.58088 120.323 5.11088C121.6 3.64088 123.188 2.46088 124.741 2.10688L124.74 2.10188L124.741 2.10688C124.923 2.06588 125.187 2.03588 125.522 2.00488H129.553C130.041 2.04088 130.493 2.08588 130.868 2.14488C131.244 2.20488 131.543 2.27888 131.725 2.36988ZM107.37 14.4049L107.367 14.4109L107.375 14.4049C107.389 14.3909 107.402 14.3747 107.411 14.3569C107.425 14.3339 107.441 14.3029 107.459 14.2649C107.495 14.1879 107.539 14.0829 107.591 13.9519C107.693 13.6919 107.824 13.3319 107.974 12.9019C108.274 12.0419 108.65 10.9069 109.027 9.74388C109.599 7.9793 110.159 6.21093 110.708 4.43888C111.124 3.08888 111.824 2.26888 112.867 2.00488H114.552C114.643 2.02488 114.734 2.04488 114.836 2.06488C115.803 2.29388 116.343 3.00788 116.572 3.85688C116.802 4.70688 116.721 5.69088 116.447 6.45688C115.381 9.48288 113.969 13.0169 112.689 15.9629L112.694 15.9649L112.689 15.9629C112.532 16.3349 112.415 16.7139 112.296 17.0979L112.273 17.1729C112.146 17.5829 112.014 17.9989 111.826 18.4209C111.519 19.1099 111.288 19.7549 111.077 20.3429L110.993 20.5769C110.759 21.2249 110.542 21.7959 110.265 22.2679C109.987 22.7399 109.648 23.1139 109.169 23.3699C108.69 23.6249 108.07 23.7619 107.23 23.7599C106.068 23.7549 105.384 23.3999 104.903 22.8119C104.463 22.2749 104.193 21.5439 103.882 20.7059L103.792 20.4619C103.492 19.6647 103.179 18.8729 102.851 18.0869L102.791 17.9419C102.487 17.2019 102.184 16.4629 101.903 15.7189C101.366 14.3134 100.808 12.9159 100.229 11.5269L100.001 10.9699C99.351 9.38388 98.708 7.79688 98.145 6.21288C97.835 5.34088 97.835 4.38988 98.161 3.61388C98.487 2.83888 99.138 2.23788 100.131 2.06588L100.255 2.04588L100.497 2.00588H101.958C102.51 2.11588 102.91 2.38488 103.236 2.82088C103.561 3.25688 103.813 3.86088 104.066 4.64188L104.071 4.64088L104.066 4.64188C104.137 4.85388 104.304 5.37888 104.527 6.08288C104.851 7.10388 105.295 8.49988 105.736 9.85688C106.108 11.0039 106.479 12.1219 106.776 12.9629C106.924 13.3829 107.053 13.7349 107.155 13.9849C107.206 14.1099 107.25 14.2099 107.286 14.2809C107.304 14.3169 107.32 14.3449 107.333 14.3659C107.339 14.3747 107.346 14.383 107.353 14.3909C107.358 14.3966 107.363 14.4014 107.37 14.4049ZM83.922 9.57088L83.921 9.56588L83.922 9.57088C85.073 9.31288 86.054 9.61088 86.825 10.2279C87.595 10.8439 88.157 11.7779 88.466 12.7879C88.603 13.2379 88.527 13.7779 88.356 14.2999C88.1871 14.7952 87.9584 15.268 87.675 15.7079C86.062 18.2229 81.67 17.8889 80.686 14.0439L80.681 14.0449L80.686 14.0439C80.514 13.3799 80.663 12.5819 81.004 11.8539C81.346 11.1259 81.878 10.4689 82.471 10.0889C82.913 9.80888 83.055 9.72888 83.196 9.69288C83.252 9.67888 83.308 9.67288 83.383 9.66288L83.446 9.65488C83.555 9.64088 83.701 9.61988 83.922 9.57088ZM42.761 10.1689L42.758 10.1649L42.761 10.1689L42.803 10.1359C42.98 9.99188 43.098 9.89588 43.188 9.82988C43.2546 9.77579 43.3296 9.73289 43.41 9.70288C43.477 9.68364 43.5456 9.67059 43.615 9.66388L43.651 9.65888C43.759 9.64388 43.906 9.62188 44.13 9.57088C45.271 9.30688 46.265 9.54588 47.053 10.1129C47.842 10.6789 48.425 11.5749 48.745 12.6249C49.014 13.5269 48.745 14.5839 48.173 15.4599C47.601 16.3369 46.726 17.0319 45.783 17.2089C44.601 17.4369 43.607 17.2339 42.829 16.6989C42.051 16.1649 41.488 15.2969 41.168 14.1959C40.833 13.0709 41.228 12.1179 41.787 11.1529C42.011 10.7699 42.339 10.5079 42.675 10.2379L42.761 10.1689Z" fill="#E53012"/>
<path d="M83.922 9.57088L83.921 9.56588L83.922 9.57088ZM83.922 9.57088C85.073 9.31288 86.054 9.61088 86.825 10.2279C87.595 10.8439 88.157 11.7779 88.466 12.7879C88.603 13.2379 88.527 13.7779 88.356 14.2999C88.1871 14.7952 87.9584 15.268 87.675 15.7079C86.062 18.2229 81.67 17.8889 80.686 14.0439L80.681 14.0449L80.686 14.0439C80.514 13.3799 80.663 12.5819 81.004 11.8539C81.346 11.1259 81.878 10.4689 82.471 10.0889C82.913 9.80888 83.055 9.72888 83.196 9.69288C83.252 9.67888 83.308 9.67288 83.383 9.66288L83.446 9.65488C83.555 9.64088 83.701 9.61988 83.922 9.57088V9.57088ZM42.761 10.1689L42.758 10.1649L42.761 10.1689ZM42.761 10.1689L42.803 10.1359C42.98 9.99188 43.098 9.89588 43.188 9.82988C43.2546 9.77579 43.3296 9.73289 43.41 9.70288C43.477 9.68364 43.5456 9.67059 43.615 9.66388L43.651 9.65888C43.759 9.64388 43.906 9.62188 44.13 9.57088C45.271 9.30688 46.265 9.54588 47.053 10.1129C47.842 10.6789 48.425 11.5749 48.745 12.6249C49.014 13.5269 48.745 14.5839 48.173 15.4599C47.601 16.3369 46.726 17.0319 45.783 17.2089C44.601 17.4369 43.607 17.2339 42.829 16.6989C42.051 16.1649 41.488 15.2969 41.168 14.1959C40.833 13.0709 41.228 12.1179 41.787 11.1529C42.011 10.7699 42.339 10.5079 42.675 10.2379L42.761 10.1689V10.1689ZM5.599 3.79288L5.795 3.65788C5.196 2.78488 4.679 2.22788 3.97 2.00488H2.184L5.6 3.79288H5.599ZM5.599 3.79288L5.802 3.65988C6.066 3.48588 6.275 3.31688 6.485 3.14588L6.595 3.05788C6.843 2.85788 7.107 2.65388 7.478 2.44088C7.995 2.13688 8.309 2.03488 8.684 2.00488H9.933L10.786 2.00688C11.355 2.00988 11.924 2.01188 12.492 2.00488H12.949C13.421 2.01488 13.656 2.06288 13.884 2.16688C13.998 2.21888 14.11 2.28488 14.249 2.36688L14.261 2.37388C14.398 2.45488 14.561 2.55088 14.775 2.66388C15.404 2.98888 15.881 3.45588 16.368 3.96388C16.568 4.16888 16.717 4.27388 16.839 4.30488C16.894 4.32012 16.9523 4.31803 17.006 4.29888C17.0604 4.27722 17.1098 4.24453 17.151 4.20288C17.2294 4.1217 17.3016 4.0348 17.367 3.94288L17.457 3.82588C17.577 3.67388 17.721 3.50388 17.919 3.34488C18.964 2.48188 20.049 2.08588 21.308 2.00488H25.106L5.6 3.79288H5.599ZM0.463005 3.14288C0.755005 2.63288 1.216 2.23788 1.931 2.06588L27.219 2.64988C31.092 5.01288 30.966 8.98788 30.827 13.4139C30.801 14.2569 30.773 15.1169 30.773 15.9849C30.773 16.3629 30.791 16.7919 30.81 17.2499C30.926 20.1309 31.09 24.1579 27.27 23.7549C24.315 23.4439 24.498 19.1799 24.619 16.3689V16.3679C24.64 15.8739 24.659 15.4249 24.659 15.0509C24.659 14.6159 24.681 14.1269 24.704 13.6109C24.834 10.6979 25.002 6.89788 21.552 6.91588C18.107 6.94188 18.279 10.8459 18.402 13.6659C18.423 14.1299 18.442 14.5659 18.444 14.9489C18.444 15.4639 18.452 16.0089 18.461 16.5629C18.482 17.9329 18.504 19.3699 18.403 20.6059H18.398C18.266 22.1079 17.515 23.4859 15.914 23.7289C14.798 23.8969 14.01 23.6799 13.455 23.2199C12.901 22.7599 12.579 22.0539 12.397 21.2409C12.215 20.4289 12.173 19.5099 12.177 18.6229C12.179 18.1789 12.192 17.7439 12.205 17.3339L12.208 17.2619C12.22 16.8789 12.232 16.5199 12.233 16.1979C12.233 15.6109 12.24 15.0099 12.247 14.4049C12.263 13.0929 12.279 11.7609 12.223 10.5109C12.17 9.33088 11.839 8.47588 11.358 7.89188C10.9154 7.35009 10.2812 6.99951 9.587 6.91288C8.273 6.73988 6.862 7.45988 6.363 8.67088C6.303 8.81588 6.255 9.07088 6.215 9.40588C6.176 9.74288 6.146 10.1619 6.124 10.6379C6.079 11.5889 6.064 12.7679 6.064 13.9669C6.064 15.5689 6.091 17.2069 6.11 18.3839C6.12 18.9669 6.128 19.4369 6.13 19.7329C6.13 21.1749 5.733 22.8069 4.294 23.4859C2.874 24.1659 1.12 23.6579 0.340005 22.2799C0.157005 21.9349 0.0560049 21.3369 0.00500488 20.6469V16.6969L0.0120049 15.6019C0.0300049 12.5959 0.0500049 9.55788 0.00500488 6.55988V4.90488C0.0450049 4.27488 0.170005 3.65188 0.463005 3.14288V3.14288ZM123.617 10.6029L123.573 10.6079H123.622L131.93 10.5459V10.5599L131.935 10.5429C132.052 10.1139 131.876 9.58688 131.596 9.10288C131.336 8.65861 131.008 8.25831 130.623 7.91688L130.62 7.92088L130.623 7.91688C129.726 7.16688 128.829 6.86188 127.99 6.84988C127.151 6.83788 126.371 7.11988 125.709 7.54388C125.084 7.94744 124.548 8.47539 124.135 9.09488C123.766 9.65488 123.574 10.2079 123.617 10.6029V10.6029ZM131.725 2.36988C133.42 3.19288 134.679 4.09588 135.877 5.57788C136.334 6.14688 136.849 6.95588 137.27 7.81788C137.692 8.67988 138.019 9.59288 138.1 10.3689V13.1509C138.024 13.7749 137.829 14.2409 137.364 14.5409C136.898 14.8419 136.16 14.9799 134.998 14.9439L134.997 14.9489V14.9439C133.477 14.9145 131.956 14.9105 130.436 14.9319C129.498 14.9399 128.562 14.9479 127.634 14.9439C127.518 14.9439 127.332 14.9389 127.103 14.9319L126.858 14.9249C126.519 14.9159 126.12 14.9069 125.731 14.9089C125.342 14.9089 124.962 14.9209 124.659 14.9529C124.528 14.9645 124.398 14.9855 124.27 15.0159C124.188 15.031 124.111 15.066 124.045 15.1179L124.049 15.1219C123.511 15.6699 124.679 17.0009 125.156 17.3259L125.153 17.3299C126.39 18.2019 127.56 18.5049 128.654 18.4879C129.747 18.4709 130.764 18.1339 131.696 17.7269C132.126 17.5389 132.537 17.3359 132.93 17.1419L133.03 17.0919C133.452 16.8849 133.853 16.6899 134.23 16.5389C134.984 16.2389 135.645 16.1149 136.204 16.4159C137.051 16.8759 137.546 17.4759 137.725 18.1359C137.904 18.7979 137.768 19.5199 137.349 20.2259C136.512 21.6359 134.549 22.9729 131.736 23.5969C126.873 24.6789 122.929 23.4809 120.428 20.8929C117.927 18.3059 116.869 14.3289 117.777 9.85188L117.772 9.85088H117.777C118.082 8.33988 119.046 6.58088 120.323 5.11088C121.6 3.64088 123.188 2.46088 124.741 2.10688L124.74 2.10188L124.741 2.10688C124.923 2.06588 125.187 2.03588 125.522 2.00488H129.553C130.041 2.04088 130.493 2.08588 130.868 2.14488C131.244 2.20488 131.543 2.27888 131.725 2.36988V2.36988ZM107.37 14.4049L107.367 14.4109L107.375 14.4049C107.389 14.3909 107.402 14.3747 107.411 14.3569C107.425 14.3339 107.441 14.3029 107.459 14.2649C107.495 14.1879 107.539 14.0829 107.591 13.9519C107.693 13.6919 107.824 13.3319 107.974 12.9019C108.274 12.0419 108.65 10.9069 109.027 9.74388C109.599 7.9793 110.159 6.21093 110.708 4.43888C111.124 3.08888 111.824 2.26888 112.867 2.00488H114.552C114.643 2.02488 114.734 2.04488 114.836 2.06488C115.803 2.29388 116.343 3.00788 116.572 3.85688C116.802 4.70688 116.721 5.69088 116.447 6.45688C115.381 9.48288 113.969 13.0169 112.689 15.9629L112.694 15.9649L112.689 15.9629C112.532 16.3349 112.415 16.7139 112.296 17.0979L112.273 17.1729C112.146 17.5829 112.014 17.9989 111.826 18.4209C111.519 19.1099 111.288 19.7549 111.077 20.3429L110.993 20.5769C110.759 21.2249 110.542 21.7959 110.265 22.2679C109.987 22.7399 109.648 23.1139 109.169 23.3699C108.69 23.6249 108.07 23.7619 107.23 23.7599C106.068 23.7549 105.384 23.3999 104.903 22.8119C104.463 22.2749 104.193 21.5439 103.882 20.7059L103.792 20.4619C103.492 19.6647 103.179 18.8729 102.851 18.0869L102.791 17.9419C102.487 17.2019 102.184 16.4629 101.903 15.7189C101.366 14.3134 100.808 12.9159 100.229 11.5269L100.001 10.9699C99.351 9.38388 98.708 7.79688 98.145 6.21288C97.835 5.34088 97.835 4.38988 98.161 3.61388C98.487 2.83888 99.138 2.23788 100.131 2.06588L100.255 2.04588L100.497 2.00588H101.958C102.51 2.11588 102.91 2.38488 103.236 2.82088C103.561 3.25688 103.813 3.86088 104.066 4.64188L104.071 4.64088L104.066 4.64188C104.137 4.85388 104.304 5.37888 104.527 6.08288C104.851 7.10388 105.295 8.49988 105.736 9.85688C106.108 11.0039 106.479 12.1219 106.776 12.9629C106.924 13.3829 107.053 13.7349 107.155 13.9849C107.206 14.1099 107.25 14.2099 107.286 14.2809C107.304 14.3169 107.32 14.3449 107.333 14.3659C107.339 14.3747 107.346 14.383 107.353 14.3909C107.358 14.3966 107.363 14.4014 107.37 14.4049V14.4049Z" stroke="url(#paint0_linear)" stroke-width="0.01"/>
<path d="M84.998 3.80811H46.404C40.245 3.80811 35.252 7.92311 35.252 12.9991C35.252 18.0761 40.245 22.1911 46.404 22.1911H84.998C91.157 22.1911 96.149 18.0761 96.149 12.9991C96.149 7.92311 91.157 3.80811 84.998 3.80811V3.80811Z" stroke="#E53012" stroke-width="4.063"/>
<path d="M161.757 1.13477V14.0968C161.757 18.9838 165.237 22.1978 169.787 22.1978C172.009 22.1978 173.963 21.3618 175.382 19.9248V21.8578H178.54V1.13577H175.355V13.9158C175.355 17.2078 173.08 19.4288 170.162 19.4288C167.191 19.4288 164.942 17.2598 164.942 13.9148V1.13477H161.757ZM181.672 1.13477V21.8598H184.697V19.9498C185.421 20.6661 186.279 21.2323 187.222 21.6158C188.171 22.0022 189.187 22.1996 190.212 22.1968C191.279 22.2076 192.337 22.0102 193.328 21.6158C194.313 21.2237 195.211 20.6409 195.97 19.9008C196.723 19.1673 197.32 18.2899 197.726 17.3208C198.13 16.3558 198.333 15.3208 198.322 14.2788C198.322 13.2428 198.112 12.2168 197.703 11.2608C197.292 10.3008 196.693 9.4328 195.941 8.70777C195.183 7.97595 194.289 7.40006 193.309 7.01277C192.323 6.62302 191.271 6.42809 190.211 6.43877C189.191 6.43665 188.18 6.63437 187.235 7.02077C186.296 7.4045 185.443 7.97077 184.724 8.68677V1.13477H181.672ZM208.092 6.43977C203.568 6.43977 200.142 10.0458 200.142 14.2798C200.142 18.8008 203.729 22.1198 208.36 22.1198C211.197 22.1198 213.5 20.9698 215.025 18.9578L212.83 17.3378C211.68 18.8528 210.153 19.5068 208.36 19.5068C205.763 19.5068 203.676 17.7298 203.247 15.2728H215.828V14.2798C215.828 9.81077 212.536 6.43977 208.092 6.43977ZM224.929 6.64977C223.243 6.64977 221.985 7.40676 221.235 8.60977V6.75277H218.21V21.8568H221.262V13.2598C221.262 10.9338 222.734 9.41777 224.742 9.41777H226V6.62277H224.93V6.64877L224.929 6.64977ZM208.04 9.05177C210.315 9.05177 212.215 10.5938 212.724 12.8938H203.248C203.864 10.5938 205.764 9.05177 208.04 9.05177ZM189.998 9.05177C192.916 9.05177 195.298 11.4038 195.298 14.2788C195.298 17.2318 192.916 19.5058 189.998 19.5058C188.59 19.5015 187.238 18.9492 186.23 17.9658C185.738 17.4859 185.346 16.9126 185.079 16.2795C184.811 15.6464 184.672 14.9662 184.671 14.2788C184.671 12.8968 185.231 11.5718 186.23 10.5928C187.238 9.60937 188.59 9.05704 189.998 9.05277V9.05177Z" fill="white"/>
<path d="M148 0V26.108" stroke="#C4C4C4" stroke-width="1.135"/>
<path d="M7.672 32.032V33.18H2.436V36.288H7.056V37.394H2.436V42H1.12V32.032H7.672ZM10.1951 32.032V42H8.99106V32.032H10.1951ZM18.2126 39.718C17.8486 41.398 16.7986 42.238 15.0626 42.238C13.9986 42.238 13.1632 41.9067 12.5566 41.244C11.9592 40.5813 11.6606 39.662 11.6606 38.486C11.6606 37.3193 11.9686 36.3767 12.5846 35.658C13.2099 34.93 14.0219 34.566 15.0206 34.566C16.1312 34.566 16.9526 34.944 17.4846 35.7C18.0259 36.4467 18.2966 37.394 18.2966 38.542V38.71H12.8646L12.8506 38.794C12.8506 39.5593 13.0512 40.1613 13.4526 40.6C13.8539 41.0387 14.4046 41.258 15.1046 41.258C15.6272 41.258 16.0379 41.1367 16.3366 40.894C16.6446 40.6513 16.8826 40.2593 17.0506 39.718H18.2126ZM17.0646 37.744C17.0086 37.0533 16.7986 36.5167 16.4346 36.134C16.0706 35.742 15.5899 35.546 14.9926 35.546C14.4139 35.546 13.9332 35.742 13.5506 36.134C13.1679 36.526 12.9392 37.0627 12.8646 37.744H17.0646ZM25.4941 34.776L22.9741 38.108L25.7881 42H24.2621L22.2321 39.032L20.2301 42H18.7881L21.5041 38.192L18.9981 34.776H20.5101L22.2601 37.254L24.0521 34.776H25.4941ZM28.0642 32.032V33.488H26.8602V32.032H28.0642ZM28.0642 34.776V42H26.8602V34.776H28.0642ZM31.0837 32.032V35.77C31.6064 34.9767 32.4044 34.58 33.4777 34.58C34.4671 34.58 35.2557 34.9253 35.8437 35.616C36.4411 36.2973 36.7397 37.212 36.7397 38.36C36.7397 39.5267 36.4364 40.46 35.8297 41.16C35.2231 41.86 34.4157 42.21 33.4077 42.21C32.2597 42.21 31.4617 41.79 31.0137 40.95V42H29.8937V32.032H31.0837ZM33.2957 35.588C32.5304 35.588 31.9611 35.8633 31.5877 36.414C31.2237 36.9647 31.0417 37.6413 31.0417 38.444C31.0417 39.2933 31.2424 39.97 31.6437 40.474C32.0544 40.9687 32.6051 41.216 33.2957 41.216C33.9584 41.216 34.4904 40.9593 34.8917 40.446C35.3024 39.9233 35.5077 39.2327 35.5077 38.374C35.5077 37.5247 35.3071 36.848 34.9057 36.344C34.5044 35.84 33.9677 35.588 33.2957 35.588ZM39.4665 32.032V42H38.2625V32.032H39.4665ZM47.4841 39.718C47.1201 41.398 46.0701 42.238 44.3341 42.238C43.2701 42.238 42.4347 41.9067 41.8281 41.244C41.2307 40.5813 40.9321 39.662 40.9321 38.486C40.9321 37.3193 41.2401 36.3767 41.8561 35.658C42.4814 34.93 43.2934 34.566 44.2921 34.566C45.4027 34.566 46.2241 34.944 46.7561 35.7C47.2974 36.4467 47.5681 37.394 47.5681 38.542V38.71H42.1361L42.1221 38.794C42.1221 39.5593 42.3227 40.1613 42.7241 40.6C43.1254 41.0387 43.6761 41.258 44.3761 41.258C44.8987 41.258 45.3094 41.1367 45.6081 40.894C45.9161 40.6513 46.1541 40.2593 46.3221 39.718H47.4841ZM46.3361 37.744C46.2801 37.0533 46.0701 36.5167 45.7061 36.134C45.3421 35.742 44.8614 35.546 44.2641 35.546C43.6854 35.546 43.2047 35.742 42.8221 36.134C42.4394 36.526 42.2107 37.0627 42.1361 37.744H46.3361ZM58.9421 39.368C58.8394 40.236 58.5081 40.9267 57.9481 41.44C57.3974 41.9533 56.6787 42.21 55.7921 42.21C54.7001 42.21 53.8554 41.874 53.2581 41.202C52.6607 40.5207 52.3621 39.6153 52.3621 38.486C52.3621 37.282 52.6747 36.33 53.3001 35.63C53.9254 34.9207 54.7701 34.566 55.8341 34.566C56.7207 34.566 57.4301 34.79 57.9621 35.238C58.4941 35.6767 58.8067 36.3067 58.9001 37.128H57.6681C57.4534 36.0827 56.8467 35.56 55.8481 35.56C55.1574 35.56 54.6114 35.8167 54.2101 36.33C53.8087 36.834 53.6081 37.52 53.6081 38.388C53.6081 39.2653 53.7994 39.956 54.1821 40.46C54.5647 40.964 55.0921 41.216 55.7641 41.216C56.3054 41.216 56.7441 41.0573 57.0801 40.74C57.4254 40.4227 57.6447 39.9653 57.7381 39.368H58.9421ZM66.6436 41.048V41.972C66.4009 42.0653 66.1303 42.112 65.8316 42.112C65.1503 42.112 64.8003 41.7573 64.7816 41.048C64.1003 41.8133 63.2276 42.196 62.1636 42.196C61.4543 42.196 60.8896 42.014 60.4696 41.65C60.0589 41.286 59.8536 40.7867 59.8536 40.152C59.8536 38.864 60.7076 38.1127 62.4156 37.898C62.5276 37.8793 62.6909 37.8607 62.9056 37.842C63.7176 37.7487 64.2169 37.6413 64.4036 37.52C64.6183 37.3707 64.7256 37.114 64.7256 36.75C64.7256 35.9567 64.1796 35.56 63.0876 35.56C62.5276 35.56 62.1029 35.6767 61.8136 35.91C61.5243 36.134 61.3516 36.5073 61.2956 37.03H60.1336C60.1523 36.2553 60.4276 35.6533 60.9596 35.224C61.4916 34.7947 62.2243 34.58 63.1576 34.58C64.1749 34.58 64.9309 34.8133 65.4256 35.28C65.5843 35.4293 65.7009 35.6253 65.7756 35.868C65.8503 36.1107 65.8923 36.3113 65.9016 36.47C65.9109 36.6193 65.9156 36.848 65.9156 37.156C65.9156 37.5107 65.9063 38.0473 65.8876 38.766C65.8689 39.4847 65.8596 40.0213 65.8596 40.376C65.8596 40.6373 65.8923 40.824 65.9576 40.936C66.0323 41.0387 66.1629 41.09 66.3496 41.09C66.4243 41.09 66.5223 41.076 66.6436 41.048ZM64.7256 38.248C64.6416 38.3133 64.5529 38.3693 64.4596 38.416C64.3663 38.4627 64.2449 38.5 64.0956 38.528C63.9556 38.556 63.8576 38.5793 63.8016 38.598C63.7549 38.6073 63.6336 38.626 63.4376 38.654C63.2416 38.6727 63.1389 38.682 63.1296 38.682C62.8403 38.7193 62.6489 38.7473 62.5556 38.766C62.4716 38.7753 62.3036 38.8127 62.0516 38.878C61.8089 38.9433 61.6363 39.018 61.5336 39.102C61.4309 39.186 61.3283 39.312 61.2256 39.48C61.1323 39.6387 61.0856 39.83 61.0856 40.054C61.0856 40.4273 61.2116 40.7213 61.4636 40.936C61.7249 41.1507 62.0796 41.258 62.5276 41.258C63.0969 41.258 63.6056 41.09 64.0536 40.754C64.5016 40.418 64.7256 40.0213 64.7256 39.564V38.248ZM71.5311 34.608V35.84C71.4471 35.8307 71.3445 35.826 71.2231 35.826C70.8405 35.826 70.5091 35.8867 70.2291 36.008C69.9491 36.12 69.7251 36.2693 69.5571 36.456C69.3985 36.6427 69.2678 36.876 69.1651 37.156C69.0625 37.436 68.9925 37.716 68.9551 37.996C68.9271 38.276 68.9131 38.5933 68.9131 38.948V42H67.7231V34.776H68.8571V36.33C69.3331 35.182 70.2245 34.608 71.5311 34.608ZM76.8977 35.602C77.5324 34.9113 78.3957 34.566 79.4877 34.566C80.5797 34.566 81.4291 34.8973 82.0357 35.56C82.6424 36.2227 82.9457 37.1513 82.9457 38.346C82.9457 39.5687 82.6424 40.5207 82.0357 41.202C81.4291 41.8833 80.5751 42.224 79.4737 42.224C78.3724 42.224 77.5091 41.888 76.8837 41.216C76.2584 40.544 75.9457 39.6107 75.9457 38.416C75.9457 37.2307 76.2631 36.2927 76.8977 35.602ZM81.1117 36.33C80.7104 35.8167 80.1597 35.56 79.4597 35.56C78.7597 35.56 78.2044 35.8167 77.7937 36.33C77.3831 36.8433 77.1777 37.5293 77.1777 38.388C77.1777 39.2747 77.3784 39.97 77.7797 40.474C78.1904 40.9687 78.7597 41.216 79.4877 41.216C80.1877 41.216 80.7337 40.964 81.1257 40.46C81.5271 39.956 81.7277 39.2607 81.7277 38.374C81.7277 37.5153 81.5224 36.834 81.1117 36.33ZM83.7048 34.776H85.0208L86.6728 40.726L88.1428 34.776H89.4448L90.9708 40.726L92.6088 34.776H93.8408L91.5308 42H90.2708L88.7868 36.288L87.3168 42H86.0288L83.7048 34.776ZM96.0922 34.776V35.896C96.6895 35.0187 97.5108 34.58 98.5562 34.58C99.4055 34.58 100.017 34.804 100.39 35.252C100.773 35.6907 100.964 36.3393 100.964 37.198V42H99.7742V37.744C99.7742 37.3893 99.7602 37.114 99.7322 36.918C99.7135 36.7127 99.6575 36.498 99.5642 36.274C99.4708 36.0407 99.3122 35.8727 99.0882 35.77C98.8642 35.6673 98.5748 35.616 98.2202 35.616C96.8482 35.616 96.1622 36.484 96.1622 38.22V42H94.9722V34.776H96.0922ZM108.925 39.718C108.561 41.398 107.511 42.238 105.775 42.238C104.711 42.238 103.876 41.9067 103.269 41.244C102.672 40.5813 102.373 39.662 102.373 38.486C102.373 37.3193 102.681 36.3767 103.297 35.658C103.923 34.93 104.735 34.566 105.733 34.566C106.844 34.566 107.665 34.944 108.197 35.7C108.739 36.4467 109.009 37.394 109.009 38.542V38.71H103.577L103.563 38.794C103.563 39.5593 103.764 40.1613 104.165 40.6C104.567 41.0387 105.117 41.258 105.817 41.258C106.34 41.258 106.751 41.1367 107.049 40.894C107.357 40.6513 107.595 40.2593 107.763 39.718H108.925ZM107.777 37.744C107.721 37.0533 107.511 36.5167 107.147 36.134C106.783 35.742 106.303 35.546 105.705 35.546C105.127 35.546 104.646 35.742 104.263 36.134C103.881 36.526 103.652 37.0627 103.577 37.744H107.777ZM114.037 34.608V35.84C113.953 35.8307 113.85 35.826 113.729 35.826C113.346 35.826 113.015 35.8867 112.735 36.008C112.455 36.12 112.231 36.2693 112.063 36.456C111.904 36.6427 111.774 36.876 111.671 37.156C111.568 37.436 111.498 37.716 111.461 37.996C111.433 38.276 111.419 38.5933 111.419 38.948V42H110.229V34.776H111.363V36.33C111.839 35.182 112.73 34.608 114.037 34.608ZM120.295 36.876H119.105C119.03 35.9987 118.442 35.56 117.341 35.56C116.884 35.56 116.524 35.6487 116.263 35.826C116.002 36.0033 115.871 36.2413 115.871 36.54C115.871 36.624 115.88 36.708 115.899 36.792C115.918 36.8667 115.95 36.9367 115.997 37.002C116.053 37.058 116.1 37.1093 116.137 37.156C116.184 37.2027 116.254 37.2493 116.347 37.296C116.45 37.3333 116.524 37.366 116.571 37.394C116.627 37.422 116.72 37.4547 116.851 37.492C116.991 37.52 117.089 37.5433 117.145 37.562C117.201 37.5713 117.308 37.5947 117.467 37.632C117.635 37.6693 117.742 37.6927 117.789 37.702C118.134 37.7767 118.391 37.8373 118.559 37.884C118.736 37.9307 118.974 38.0193 119.273 38.15C119.581 38.2713 119.814 38.402 119.973 38.542C120.132 38.6727 120.272 38.8593 120.393 39.102C120.524 39.3353 120.589 39.6013 120.589 39.9C120.589 40.6 120.314 41.1647 119.763 41.594C119.222 42.014 118.498 42.224 117.593 42.224C116.613 42.224 115.857 42.0093 115.325 41.58C114.802 41.1507 114.522 40.53 114.485 39.718H115.661C115.726 40.7353 116.38 41.244 117.621 41.244C118.153 41.244 118.578 41.1367 118.895 40.922C119.222 40.698 119.385 40.404 119.385 40.04C119.385 39.7973 119.301 39.5967 119.133 39.438C118.965 39.2793 118.778 39.1673 118.573 39.102C118.368 39.0273 118.074 38.9433 117.691 38.85C117.635 38.8407 117.593 38.8313 117.565 38.822C117.481 38.8033 117.299 38.766 117.019 38.71C116.748 38.6447 116.552 38.5933 116.431 38.556C116.31 38.5187 116.132 38.4627 115.899 38.388C115.675 38.304 115.507 38.22 115.395 38.136C115.283 38.0427 115.157 37.9307 115.017 37.8C114.886 37.66 114.793 37.5013 114.737 37.324C114.681 37.1373 114.653 36.9273 114.653 36.694C114.653 36.0407 114.9 35.5227 115.395 35.14C115.899 34.7573 116.571 34.566 117.411 34.566C118.26 34.566 118.951 34.7667 119.483 35.168C120.024 35.5693 120.295 36.1387 120.295 36.876ZM123.123 32.032V35.798C123.655 34.9953 124.444 34.594 125.489 34.594C127.113 34.594 127.925 35.4153 127.925 37.058V42H126.735V37.338C126.735 36.7873 126.618 36.3673 126.385 36.078C126.161 35.7793 125.75 35.63 125.153 35.63C124.425 35.63 123.902 35.8633 123.585 36.33C123.277 36.7967 123.123 37.464 123.123 38.332V42H121.933V32.032H123.123ZM130.972 32.032V33.488H129.768V32.032H130.972ZM130.972 34.776V42H129.768V34.776H130.972ZM133.936 34.776V35.798C134.459 34.9673 135.271 34.552 136.372 34.552C137.38 34.552 138.178 34.8927 138.766 35.574C139.363 36.2553 139.662 37.1793 139.662 38.346C139.662 39.5127 139.368 40.446 138.78 41.146C138.201 41.8367 137.417 42.182 136.428 42.182C135.392 42.182 134.585 41.7853 134.006 40.992V44.786H132.816V34.776H133.936ZM136.19 35.546C135.499 35.546 134.953 35.798 134.552 36.302C134.16 36.7967 133.964 37.4827 133.964 38.36C133.964 39.2373 134.165 39.928 134.566 40.432C134.977 40.9267 135.532 41.174 136.232 41.174C136.913 41.174 137.45 40.922 137.842 40.418C138.234 39.914 138.43 39.228 138.43 38.36C138.43 37.4827 138.229 36.7967 137.828 36.302C137.436 35.798 136.89 35.546 136.19 35.546Z" fill="white"/>
<defs>
<linearGradient id="paint0_linear" x1="4.88294e-06" y1="13.0619" x2="138.105" y2="13.0619" gradientUnits="userSpaceOnUse">
<stop stop-color="#E53012"/>
<stop offset="0.448" stop-color="#E53012"/>
<stop offset="0.962" stop-color="#EB6408"/>
</linearGradient>
</defs>
</svg>
