<svg width="226" height="48" viewBox="0 0 226 48" fill="none" xmlns="http://www.w3.org/2000/svg">
<path d="M5.599 3.793L5.795 3.658C5.196 2.785 4.679 2.228 3.97 2.005H2.184L5.6 3.793H5.599ZM5.599 3.793L5.802 3.66C6.066 3.486 6.275 3.317 6.485 3.146L6.595 3.058C6.843 2.858 7.10701 2.654 7.478 2.441C7.99501 2.137 8.309 2.035 8.684 2.005H9.933L10.786 2.007C11.355 2.01 11.924 2.012 12.492 2.005H12.949C13.421 2.015 13.656 2.063 13.884 2.167C13.998 2.219 14.11 2.285 14.249 2.367L14.261 2.374C14.398 2.455 14.561 2.551 14.775 2.664C15.404 2.989 15.881 3.456 16.368 3.964C16.568 4.169 16.717 4.27401 16.839 4.30501C16.894 4.32024 16.9523 4.31815 17.006 4.29901C17.0604 4.27734 17.1098 4.24466 17.151 4.203C17.2294 4.12183 17.3016 4.03492 17.367 3.943L17.457 3.826C17.577 3.674 17.721 3.504 17.919 3.345C18.964 2.482 20.049 2.086 21.308 2.005H25.106L5.6 3.793H5.599ZM0.463005 3.143C0.755005 2.633 1.216 2.238 1.931 2.066L27.219 2.65C31.092 5.013 30.966 8.988 30.827 13.414C30.801 14.257 30.773 15.117 30.773 15.985C30.773 16.363 30.791 16.792 30.81 17.25C30.926 20.131 31.09 24.158 27.27 23.755C24.315 23.444 24.498 19.18 24.619 16.369V16.368C24.64 15.874 24.659 15.425 24.659 15.051C24.659 14.616 24.681 14.127 24.704 13.611C24.834 10.698 25.002 6.898 21.552 6.916C18.107 6.942 18.279 10.846 18.402 13.666C18.423 14.13 18.442 14.566 18.444 14.949C18.444 15.464 18.452 16.009 18.461 16.563C18.482 17.933 18.504 19.37 18.403 20.606H18.398C18.266 22.108 17.515 23.486 15.914 23.729C14.798 23.897 14.01 23.68 13.455 23.22C12.901 22.76 12.579 22.054 12.397 21.241C12.215 20.429 12.173 19.51 12.177 18.623C12.179 18.179 12.192 17.744 12.205 17.334L12.208 17.262C12.22 16.879 12.232 16.52 12.233 16.198C12.233 15.611 12.24 15.01 12.247 14.405C12.263 13.093 12.279 11.761 12.223 10.511C12.17 9.331 11.839 8.47601 11.358 7.892C10.9154 7.35021 10.2812 6.99963 9.587 6.913C8.273 6.74001 6.862 7.46 6.363 8.671C6.303 8.816 6.255 9.071 6.215 9.406C6.176 9.743 6.146 10.162 6.124 10.638C6.079 11.589 6.064 12.768 6.064 13.967C6.064 15.569 6.091 17.207 6.11 18.384C6.12001 18.967 6.12801 19.437 6.13 19.733C6.13 21.175 5.73301 22.807 4.294 23.486C2.874 24.166 1.12 23.658 0.340005 22.28C0.157005 21.935 0.0560049 21.337 0.00500488 20.647V16.697L0.0120049 15.602C0.0300049 12.596 0.0500049 9.558 0.00500488 6.56V4.905C0.0450049 4.275 0.170005 3.652 0.463005 3.143ZM123.617 10.603L123.573 10.608H123.622L131.93 10.546V10.56L131.935 10.543C132.052 10.114 131.876 9.587 131.596 9.103C131.336 8.65873 131.008 8.25843 130.623 7.917L130.62 7.921L130.623 7.917C129.726 7.167 128.829 6.862 127.99 6.85C127.151 6.838 126.371 7.12001 125.709 7.544C125.084 7.94756 124.548 8.47551 124.135 9.09501C123.766 9.655 123.574 10.208 123.617 10.603ZM131.725 2.37C133.42 3.193 134.679 4.096 135.877 5.578C136.334 6.14701 136.849 6.956 137.27 7.818C137.692 8.68 138.019 9.59301 138.1 10.369V13.151C138.024 13.775 137.829 14.241 137.364 14.541C136.898 14.842 136.16 14.98 134.998 14.944L134.997 14.949V14.944C133.477 14.9146 131.956 14.9106 130.436 14.932C129.498 14.94 128.562 14.948 127.634 14.944C127.518 14.944 127.332 14.939 127.103 14.932L126.858 14.925C126.519 14.916 126.12 14.907 125.731 14.909C125.342 14.909 124.962 14.921 124.659 14.953C124.528 14.9646 124.398 14.9856 124.27 15.016C124.188 15.0311 124.111 15.0661 124.045 15.118L124.049 15.122C123.511 15.67 124.679 17.001 125.156 17.326L125.153 17.33C126.39 18.202 127.56 18.505 128.654 18.488C129.747 18.471 130.764 18.134 131.696 17.727C132.126 17.539 132.537 17.336 132.93 17.142L133.03 17.092C133.452 16.885 133.853 16.69 134.23 16.539C134.984 16.239 135.645 16.115 136.204 16.416C137.051 16.876 137.546 17.476 137.725 18.136C137.904 18.798 137.768 19.52 137.349 20.226C136.512 21.636 134.549 22.973 131.736 23.597C126.873 24.679 122.929 23.481 120.428 20.893C117.927 18.306 116.869 14.329 117.777 9.85201L117.772 9.851H117.777C118.082 8.34 119.046 6.58101 120.323 5.111C121.6 3.641 123.188 2.461 124.741 2.107L124.74 2.102L124.741 2.107C124.923 2.066 125.187 2.036 125.522 2.005H129.553C130.041 2.041 130.493 2.086 130.868 2.145C131.244 2.205 131.543 2.279 131.725 2.37ZM107.37 14.405L107.367 14.411L107.375 14.405C107.389 14.391 107.402 14.3748 107.411 14.357C107.425 14.334 107.441 14.303 107.459 14.265C107.495 14.188 107.539 14.083 107.591 13.952C107.693 13.692 107.824 13.332 107.974 12.902C108.274 12.042 108.65 10.907 109.027 9.74401C109.599 7.97942 110.159 6.21105 110.708 4.439C111.124 3.089 111.824 2.269 112.867 2.005H114.552C114.643 2.025 114.734 2.045 114.836 2.065C115.803 2.294 116.343 3.00801 116.572 3.85701C116.802 4.70701 116.721 5.691 116.447 6.457C115.381 9.483 113.969 13.017 112.689 15.963L112.694 15.965L112.689 15.963C112.532 16.335 112.415 16.714 112.296 17.098L112.273 17.173C112.146 17.583 112.014 17.999 111.826 18.421C111.519 19.11 111.288 19.755 111.077 20.343L110.993 20.577C110.759 21.225 110.542 21.796 110.265 22.268C109.987 22.74 109.648 23.114 109.169 23.37C108.69 23.625 108.07 23.762 107.23 23.76C106.068 23.755 105.384 23.4 104.903 22.812C104.463 22.275 104.193 21.544 103.882 20.706L103.792 20.462C103.492 19.6648 103.179 18.873 102.851 18.087L102.791 17.942C102.487 17.202 102.184 16.463 101.903 15.719C101.366 14.3135 100.808 12.916 100.229 11.527L100.001 10.97C99.351 9.38401 98.708 7.797 98.145 6.213C97.835 5.341 97.835 4.39001 98.161 3.614C98.487 2.839 99.138 2.238 100.131 2.066L100.255 2.046L100.497 2.006H101.958C102.51 2.116 102.91 2.385 103.236 2.821C103.561 3.257 103.813 3.861 104.066 4.642L104.071 4.64101L104.066 4.642C104.137 4.854 104.304 5.379 104.527 6.083C104.851 7.104 105.295 8.50001 105.736 9.85701C106.108 11.004 106.479 12.122 106.776 12.963C106.924 13.383 107.053 13.735 107.155 13.985C107.206 14.11 107.25 14.21 107.286 14.281C107.304 14.317 107.32 14.345 107.333 14.366C107.339 14.3748 107.346 14.3832 107.353 14.391C107.358 14.3968 107.363 14.4015 107.37 14.405ZM83.922 9.571L83.921 9.566L83.922 9.571C85.073 9.313 86.054 9.611 86.825 10.228C87.595 10.844 88.157 11.778 88.466 12.788C88.603 13.238 88.527 13.778 88.356 14.3C88.1871 14.7953 87.9584 15.2681 87.675 15.708C86.062 18.223 81.67 17.889 80.686 14.044L80.681 14.045L80.686 14.044C80.514 13.38 80.663 12.582 81.004 11.854C81.346 11.126 81.878 10.469 82.471 10.089C82.913 9.809 83.055 9.729 83.196 9.693C83.252 9.679 83.308 9.67301 83.383 9.663L83.446 9.655C83.555 9.641 83.701 9.62 83.922 9.571ZM42.761 10.169L42.758 10.165L42.761 10.169L42.803 10.136C42.98 9.992 43.098 9.896 43.188 9.83C43.2546 9.77591 43.3296 9.73302 43.41 9.703C43.477 9.68376 43.5456 9.67071 43.615 9.664L43.651 9.65901C43.759 9.64401 43.906 9.622 44.13 9.571C45.271 9.307 46.265 9.546 47.053 10.113C47.842 10.679 48.425 11.575 48.745 12.625C49.014 13.527 48.745 14.584 48.173 15.46C47.601 16.337 46.726 17.032 45.783 17.209C44.601 17.437 43.607 17.234 42.829 16.699C42.051 16.165 41.488 15.297 41.168 14.196C40.833 13.071 41.228 12.118 41.787 11.153C42.011 10.77 42.339 10.508 42.675 10.238L42.761 10.169Z" fill="white"/>
<path d="M83.922 9.571L83.921 9.566L83.922 9.571ZM83.922 9.571C85.073 9.313 86.054 9.611 86.825 10.228C87.595 10.844 88.157 11.778 88.466 12.788C88.603 13.238 88.527 13.778 88.356 14.3C88.1871 14.7953 87.9584 15.2681 87.675 15.708C86.062 18.223 81.67 17.889 80.686 14.044L80.681 14.045L80.686 14.044C80.514 13.38 80.663 12.582 81.004 11.854C81.346 11.126 81.878 10.469 82.471 10.089C82.913 9.809 83.055 9.729 83.196 9.693C83.252 9.679 83.308 9.673 83.383 9.663L83.446 9.655C83.555 9.641 83.701 9.62 83.922 9.571V9.571ZM42.761 10.169L42.758 10.165L42.761 10.169ZM42.761 10.169L42.803 10.136C42.98 9.992 43.098 9.896 43.188 9.83C43.2546 9.77591 43.3296 9.73302 43.41 9.703C43.477 9.68376 43.5456 9.67071 43.615 9.664L43.651 9.65901C43.759 9.64401 43.906 9.622 44.13 9.571C45.271 9.307 46.265 9.546 47.053 10.113C47.842 10.679 48.425 11.575 48.745 12.625C49.014 13.527 48.745 14.584 48.173 15.46C47.601 16.337 46.726 17.032 45.783 17.209C44.601 17.437 43.607 17.234 42.829 16.699C42.051 16.165 41.488 15.297 41.168 14.196C40.833 13.071 41.228 12.118 41.787 11.153C42.011 10.77 42.339 10.508 42.675 10.238L42.761 10.169V10.169ZM5.599 3.793L5.795 3.658C5.196 2.785 4.679 2.228 3.97 2.005H2.184L5.6 3.793H5.599ZM5.599 3.793L5.802 3.66C6.066 3.486 6.275 3.317 6.485 3.146L6.595 3.058C6.843 2.858 7.107 2.654 7.478 2.441C7.995 2.137 8.309 2.035 8.684 2.005H9.933L10.786 2.007C11.355 2.01 11.924 2.012 12.492 2.005H12.949C13.421 2.015 13.656 2.063 13.884 2.167C13.998 2.219 14.11 2.285 14.249 2.367L14.261 2.374C14.398 2.455 14.561 2.551 14.775 2.664C15.404 2.989 15.881 3.456 16.368 3.964C16.568 4.169 16.717 4.27401 16.839 4.30501C16.894 4.32024 16.9523 4.31815 17.006 4.29901C17.0604 4.27734 17.1098 4.24466 17.151 4.203C17.2294 4.12183 17.3016 4.03492 17.367 3.943L17.457 3.826C17.577 3.674 17.721 3.504 17.919 3.345C18.964 2.482 20.049 2.086 21.308 2.005H25.106L5.6 3.793H5.599ZM0.463005 3.143C0.755005 2.633 1.216 2.238 1.931 2.066L27.219 2.65C31.092 5.013 30.966 8.988 30.827 13.414C30.801 14.257 30.773 15.117 30.773 15.985C30.773 16.363 30.791 16.792 30.81 17.25C30.926 20.131 31.09 24.158 27.27 23.755C24.315 23.444 24.498 19.18 24.619 16.369V16.368C24.64 15.874 24.659 15.425 24.659 15.051C24.659 14.616 24.681 14.127 24.704 13.611C24.834 10.698 25.002 6.898 21.552 6.916C18.107 6.942 18.279 10.846 18.402 13.666C18.423 14.13 18.442 14.566 18.444 14.949C18.444 15.464 18.452 16.009 18.461 16.563C18.482 17.933 18.504 19.37 18.403 20.606H18.398C18.266 22.108 17.515 23.486 15.914 23.729C14.798 23.897 14.01 23.68 13.455 23.22C12.901 22.76 12.579 22.054 12.397 21.241C12.215 20.429 12.173 19.51 12.177 18.623C12.179 18.179 12.192 17.744 12.205 17.334L12.208 17.262C12.22 16.879 12.232 16.52 12.233 16.198C12.233 15.611 12.24 15.01 12.247 14.405C12.263 13.093 12.279 11.761 12.223 10.511C12.17 9.331 11.839 8.476 11.358 7.892C10.9154 7.35021 10.2812 6.99963 9.587 6.913C8.273 6.74 6.862 7.46 6.363 8.671C6.303 8.816 6.255 9.071 6.215 9.406C6.176 9.743 6.146 10.162 6.124 10.638C6.079 11.589 6.064 12.768 6.064 13.967C6.064 15.569 6.091 17.207 6.11 18.384C6.12 18.967 6.128 19.437 6.13 19.733C6.13 21.175 5.733 22.807 4.294 23.486C2.874 24.166 1.12 23.658 0.340005 22.28C0.157005 21.935 0.0560049 21.337 0.00500488 20.647V16.697L0.0120049 15.602C0.0300049 12.596 0.0500049 9.558 0.00500488 6.56V4.905C0.0450049 4.275 0.170005 3.652 0.463005 3.143V3.143ZM123.617 10.603L123.573 10.608H123.622L131.93 10.546V10.56L131.935 10.543C132.052 10.114 131.876 9.587 131.596 9.103C131.336 8.65873 131.008 8.25843 130.623 7.917L130.62 7.921L130.623 7.917C129.726 7.167 128.829 6.862 127.99 6.85C127.151 6.838 126.371 7.12 125.709 7.544C125.084 7.94756 124.548 8.47551 124.135 9.09501C123.766 9.65501 123.574 10.208 123.617 10.603V10.603ZM131.725 2.37C133.42 3.193 134.679 4.096 135.877 5.578C136.334 6.147 136.849 6.956 137.27 7.818C137.692 8.68 138.019 9.59301 138.1 10.369V13.151C138.024 13.775 137.829 14.241 137.364 14.541C136.898 14.842 136.16 14.98 134.998 14.944L134.997 14.949V14.944C133.477 14.9146 131.956 14.9106 130.436 14.932C129.498 14.94 128.562 14.948 127.634 14.944C127.518 14.944 127.332 14.939 127.103 14.932L126.858 14.925C126.519 14.916 126.12 14.907 125.731 14.909C125.342 14.909 124.962 14.921 124.659 14.953C124.528 14.9646 124.398 14.9856 124.27 15.016C124.188 15.0311 124.111 15.0661 124.045 15.118L124.049 15.122C123.511 15.67 124.679 17.001 125.156 17.326L125.153 17.33C126.39 18.202 127.56 18.505 128.654 18.488C129.747 18.471 130.764 18.134 131.696 17.727C132.126 17.539 132.537 17.336 132.93 17.142L133.03 17.092C133.452 16.885 133.853 16.69 134.23 16.539C134.984 16.239 135.645 16.115 136.204 16.416C137.051 16.876 137.546 17.476 137.725 18.136C137.904 18.798 137.768 19.52 137.349 20.226C136.512 21.636 134.549 22.973 131.736 23.597C126.873 24.679 122.929 23.481 120.428 20.893C117.927 18.306 116.869 14.329 117.777 9.85201L117.772 9.851H117.777C118.082 8.34 119.046 6.581 120.323 5.111C121.6 3.641 123.188 2.461 124.741 2.107L124.74 2.102L124.741 2.107C124.923 2.066 125.187 2.036 125.522 2.005H129.553C130.041 2.041 130.493 2.086 130.868 2.145C131.244 2.205 131.543 2.279 131.725 2.37V2.37ZM107.37 14.405L107.367 14.411L107.375 14.405C107.389 14.391 107.402 14.3748 107.411 14.357C107.425 14.334 107.441 14.303 107.459 14.265C107.495 14.188 107.539 14.083 107.591 13.952C107.693 13.692 107.824 13.332 107.974 12.902C108.274 12.042 108.65 10.907 109.027 9.74401C109.599 7.97942 110.159 6.21105 110.708 4.439C111.124 3.089 111.824 2.269 112.867 2.005H114.552C114.643 2.025 114.734 2.045 114.836 2.065C115.803 2.294 116.343 3.00801 116.572 3.85701C116.802 4.70701 116.721 5.691 116.447 6.457C115.381 9.483 113.969 13.017 112.689 15.963L112.694 15.965L112.689 15.963C112.532 16.335 112.415 16.714 112.296 17.098L112.273 17.173C112.146 17.583 112.014 17.999 111.826 18.421C111.519 19.11 111.288 19.755 111.077 20.343L110.993 20.577C110.759 21.225 110.542 21.796 110.265 22.268C109.987 22.74 109.648 23.114 109.169 23.37C108.69 23.625 108.07 23.762 107.23 23.76C106.068 23.755 105.384 23.4 104.903 22.812C104.463 22.275 104.193 21.544 103.882 20.706L103.792 20.462C103.492 19.6648 103.179 18.873 102.851 18.087L102.791 17.942C102.487 17.202 102.184 16.463 101.903 15.719C101.366 14.3135 100.808 12.916 100.229 11.527L100.001 10.97C99.351 9.38401 98.708 7.797 98.145 6.213C97.835 5.341 97.835 4.39 98.161 3.614C98.487 2.839 99.138 2.238 100.131 2.066L100.255 2.046L100.497 2.006H101.958C102.51 2.116 102.91 2.385 103.236 2.821C103.561 3.257 103.813 3.861 104.066 4.642L104.071 4.64101L104.066 4.642C104.137 4.854 104.304 5.379 104.527 6.083C104.851 7.104 105.295 8.50001 105.736 9.85701C106.108 11.004 106.479 12.122 106.776 12.963C106.924 13.383 107.053 13.735 107.155 13.985C107.206 14.11 107.25 14.21 107.286 14.281C107.304 14.317 107.32 14.345 107.333 14.366C107.339 14.3748 107.346 14.3832 107.353 14.391C107.358 14.3968 107.363 14.4015 107.37 14.405V14.405Z" stroke="url(#paint0_linear)" stroke-width="0.01"/>
<path d="M84.998 3.80798H46.404C40.245 3.80798 35.252 7.92298 35.252 12.999C35.252 18.076 40.245 22.191 46.404 22.191H84.998C91.157 22.191 96.149 18.076 96.149 12.999C96.149 7.92298 91.157 3.80798 84.998 3.80798V3.80798Z" stroke="white" stroke-width="4.063"/>
<path d="M161.757 1.13501V14.097C161.757 18.984 165.237 22.198 169.787 22.198C172.009 22.198 173.963 21.362 175.382 19.925V21.858H178.54V1.13601H175.355V13.916C175.355 17.208 173.08 19.429 170.162 19.429C167.191 19.429 164.942 17.26 164.942 13.915V1.13501H161.757ZM181.672 1.13501V21.86H184.697V19.95C185.421 20.6664 186.279 21.2326 187.222 21.616C188.171 22.0025 189.187 22.1998 190.212 22.197C191.279 22.2078 192.337 22.0105 193.328 21.616C194.313 21.224 195.211 20.6411 195.97 19.901C196.723 19.1676 197.32 18.2902 197.726 17.321C198.13 16.356 198.333 15.321 198.322 14.279C198.322 13.243 198.112 12.217 197.703 11.261C197.292 10.3011 196.693 9.43304 195.941 8.70801C195.183 7.9762 194.289 7.40031 193.309 7.01301C192.323 6.62327 191.271 6.42834 190.211 6.43901C189.191 6.4369 188.18 6.63462 187.235 7.02101C186.296 7.40475 185.443 7.97102 184.724 8.68701V1.13501H181.672ZM208.092 6.44001C203.568 6.44001 200.142 10.046 200.142 14.28C200.142 18.801 203.729 22.12 208.36 22.12C211.197 22.12 213.5 20.97 215.025 18.958L212.83 17.338C211.68 18.853 210.153 19.507 208.36 19.507C205.763 19.507 203.676 17.73 203.247 15.273H215.828V14.28C215.828 9.81101 212.536 6.44001 208.092 6.44001ZM224.929 6.65001C223.243 6.65001 221.985 7.40701 221.235 8.61001V6.75301H218.21V21.857H221.262V13.26C221.262 10.934 222.734 9.41801 224.742 9.41801H226V6.62301H224.93V6.64901L224.929 6.65001ZM208.04 9.05201C210.315 9.05201 212.215 10.594 212.724 12.894H203.248C203.864 10.594 205.764 9.05201 208.04 9.05201ZM189.998 9.05201C192.916 9.05201 195.298 11.404 195.298 14.279C195.298 17.232 192.916 19.506 189.998 19.506C188.59 19.5017 187.238 18.9494 186.23 17.966C185.738 17.4861 185.346 16.9128 185.079 16.2797C184.811 15.6466 184.672 14.9664 184.671 14.279C184.671 12.897 185.231 11.572 186.23 10.593C187.238 9.60962 188.59 9.05729 189.998 9.05301V9.05201Z" fill="white"/>
<path d="M148 0V26.108" stroke="#C4C4C4" stroke-width="1.135"/>
<path d="M7.672 32.032V33.18H2.436V36.288H7.056V37.394H2.436V42H1.12V32.032H7.672ZM10.1951 32.032V42H8.99106V32.032H10.1951ZM18.2126 39.718C17.8486 41.398 16.7986 42.238 15.0626 42.238C13.9986 42.238 13.1632 41.9067 12.5566 41.244C11.9592 40.5813 11.6606 39.662 11.6606 38.486C11.6606 37.3193 11.9686 36.3767 12.5846 35.658C13.2099 34.93 14.0219 34.566 15.0206 34.566C16.1312 34.566 16.9526 34.944 17.4846 35.7C18.0259 36.4467 18.2966 37.394 18.2966 38.542V38.71H12.8646L12.8506 38.794C12.8506 39.5593 13.0512 40.1613 13.4526 40.6C13.8539 41.0387 14.4046 41.258 15.1046 41.258C15.6272 41.258 16.0379 41.1367 16.3366 40.894C16.6446 40.6513 16.8826 40.2593 17.0506 39.718H18.2126ZM17.0646 37.744C17.0086 37.0533 16.7986 36.5167 16.4346 36.134C16.0706 35.742 15.5899 35.546 14.9926 35.546C14.4139 35.546 13.9332 35.742 13.5506 36.134C13.1679 36.526 12.9392 37.0627 12.8646 37.744H17.0646ZM25.4941 34.776L22.9741 38.108L25.7881 42H24.2621L22.2321 39.032L20.2301 42H18.7881L21.5041 38.192L18.9981 34.776H20.5101L22.2601 37.254L24.0521 34.776H25.4941ZM28.0642 32.032V33.488H26.8602V32.032H28.0642ZM28.0642 34.776V42H26.8602V34.776H28.0642ZM31.0837 32.032V35.77C31.6064 34.9767 32.4044 34.58 33.4777 34.58C34.4671 34.58 35.2557 34.9253 35.8437 35.616C36.4411 36.2973 36.7397 37.212 36.7397 38.36C36.7397 39.5267 36.4364 40.46 35.8297 41.16C35.2231 41.86 34.4157 42.21 33.4077 42.21C32.2597 42.21 31.4617 41.79 31.0137 40.95V42H29.8937V32.032H31.0837ZM33.2957 35.588C32.5304 35.588 31.9611 35.8633 31.5877 36.414C31.2237 36.9647 31.0417 37.6413 31.0417 38.444C31.0417 39.2933 31.2424 39.97 31.6437 40.474C32.0544 40.9687 32.6051 41.216 33.2957 41.216C33.9584 41.216 34.4904 40.9593 34.8917 40.446C35.3024 39.9233 35.5077 39.2327 35.5077 38.374C35.5077 37.5247 35.3071 36.848 34.9057 36.344C34.5044 35.84 33.9677 35.588 33.2957 35.588ZM39.4665 32.032V42H38.2625V32.032H39.4665ZM47.4841 39.718C47.1201 41.398 46.0701 42.238 44.3341 42.238C43.2701 42.238 42.4347 41.9067 41.8281 41.244C41.2307 40.5813 40.9321 39.662 40.9321 38.486C40.9321 37.3193 41.2401 36.3767 41.8561 35.658C42.4814 34.93 43.2934 34.566 44.2921 34.566C45.4027 34.566 46.2241 34.944 46.7561 35.7C47.2974 36.4467 47.5681 37.394 47.5681 38.542V38.71H42.1361L42.1221 38.794C42.1221 39.5593 42.3227 40.1613 42.7241 40.6C43.1254 41.0387 43.6761 41.258 44.3761 41.258C44.8987 41.258 45.3094 41.1367 45.6081 40.894C45.9161 40.6513 46.1541 40.2593 46.3221 39.718H47.4841ZM46.3361 37.744C46.2801 37.0533 46.0701 36.5167 45.7061 36.134C45.3421 35.742 44.8614 35.546 44.2641 35.546C43.6854 35.546 43.2047 35.742 42.8221 36.134C42.4394 36.526 42.2107 37.0627 42.1361 37.744H46.3361ZM58.9421 39.368C58.8394 40.236 58.5081 40.9267 57.9481 41.44C57.3974 41.9533 56.6787 42.21 55.7921 42.21C54.7001 42.21 53.8554 41.874 53.2581 41.202C52.6607 40.5207 52.3621 39.6153 52.3621 38.486C52.3621 37.282 52.6747 36.33 53.3001 35.63C53.9254 34.9207 54.7701 34.566 55.8341 34.566C56.7207 34.566 57.4301 34.79 57.9621 35.238C58.4941 35.6767 58.8067 36.3067 58.9001 37.128H57.6681C57.4534 36.0827 56.8467 35.56 55.8481 35.56C55.1574 35.56 54.6114 35.8167 54.2101 36.33C53.8087 36.834 53.6081 37.52 53.6081 38.388C53.6081 39.2653 53.7994 39.956 54.1821 40.46C54.5647 40.964 55.0921 41.216 55.7641 41.216C56.3054 41.216 56.7441 41.0573 57.0801 40.74C57.4254 40.4227 57.6447 39.9653 57.7381 39.368H58.9421ZM66.6436 41.048V41.972C66.4009 42.0653 66.1303 42.112 65.8316 42.112C65.1503 42.112 64.8003 41.7573 64.7816 41.048C64.1003 41.8133 63.2276 42.196 62.1636 42.196C61.4543 42.196 60.8896 42.014 60.4696 41.65C60.0589 41.286 59.8536 40.7867 59.8536 40.152C59.8536 38.864 60.7076 38.1127 62.4156 37.898C62.5276 37.8793 62.6909 37.8607 62.9056 37.842C63.7176 37.7487 64.2169 37.6413 64.4036 37.52C64.6183 37.3707 64.7256 37.114 64.7256 36.75C64.7256 35.9567 64.1796 35.56 63.0876 35.56C62.5276 35.56 62.1029 35.6767 61.8136 35.91C61.5243 36.134 61.3516 36.5073 61.2956 37.03H60.1336C60.1523 36.2553 60.4276 35.6533 60.9596 35.224C61.4916 34.7947 62.2243 34.58 63.1576 34.58C64.1749 34.58 64.9309 34.8133 65.4256 35.28C65.5843 35.4293 65.7009 35.6253 65.7756 35.868C65.8503 36.1107 65.8923 36.3113 65.9016 36.47C65.9109 36.6193 65.9156 36.848 65.9156 37.156C65.9156 37.5107 65.9063 38.0473 65.8876 38.766C65.8689 39.4847 65.8596 40.0213 65.8596 40.376C65.8596 40.6373 65.8923 40.824 65.9576 40.936C66.0323 41.0387 66.1629 41.09 66.3496 41.09C66.4243 41.09 66.5223 41.076 66.6436 41.048ZM64.7256 38.248C64.6416 38.3133 64.5529 38.3693 64.4596 38.416C64.3663 38.4627 64.2449 38.5 64.0956 38.528C63.9556 38.556 63.8576 38.5793 63.8016 38.598C63.7549 38.6073 63.6336 38.626 63.4376 38.654C63.2416 38.6727 63.1389 38.682 63.1296 38.682C62.8403 38.7193 62.6489 38.7473 62.5556 38.766C62.4716 38.7753 62.3036 38.8127 62.0516 38.878C61.8089 38.9433 61.6363 39.018 61.5336 39.102C61.4309 39.186 61.3283 39.312 61.2256 39.48C61.1323 39.6387 61.0856 39.83 61.0856 40.054C61.0856 40.4273 61.2116 40.7213 61.4636 40.936C61.7249 41.1507 62.0796 41.258 62.5276 41.258C63.0969 41.258 63.6056 41.09 64.0536 40.754C64.5016 40.418 64.7256 40.0213 64.7256 39.564V38.248ZM71.5311 34.608V35.84C71.4471 35.8307 71.3445 35.826 71.2231 35.826C70.8405 35.826 70.5091 35.8867 70.2291 36.008C69.9491 36.12 69.7251 36.2693 69.5571 36.456C69.3985 36.6427 69.2678 36.876 69.1651 37.156C69.0625 37.436 68.9925 37.716 68.9551 37.996C68.9271 38.276 68.9131 38.5933 68.9131 38.948V42H67.7231V34.776H68.8571V36.33C69.3331 35.182 70.2245 34.608 71.5311 34.608ZM76.8977 35.602C77.5324 34.9113 78.3957 34.566 79.4877 34.566C80.5797 34.566 81.4291 34.8973 82.0357 35.56C82.6424 36.2227 82.9457 37.1513 82.9457 38.346C82.9457 39.5687 82.6424 40.5207 82.0357 41.202C81.4291 41.8833 80.5751 42.224 79.4737 42.224C78.3724 42.224 77.5091 41.888 76.8837 41.216C76.2584 40.544 75.9457 39.6107 75.9457 38.416C75.9457 37.2307 76.2631 36.2927 76.8977 35.602ZM81.1117 36.33C80.7104 35.8167 80.1597 35.56 79.4597 35.56C78.7597 35.56 78.2044 35.8167 77.7937 36.33C77.3831 36.8433 77.1777 37.5293 77.1777 38.388C77.1777 39.2747 77.3784 39.97 77.7797 40.474C78.1904 40.9687 78.7597 41.216 79.4877 41.216C80.1877 41.216 80.7337 40.964 81.1257 40.46C81.5271 39.956 81.7277 39.2607 81.7277 38.374C81.7277 37.5153 81.5224 36.834 81.1117 36.33ZM83.7048 34.776H85.0208L86.6728 40.726L88.1428 34.776H89.4448L90.9708 40.726L92.6088 34.776H93.8408L91.5308 42H90.2708L88.7868 36.288L87.3168 42H86.0288L83.7048 34.776ZM96.0922 34.776V35.896C96.6895 35.0187 97.5108 34.58 98.5562 34.58C99.4055 34.58 100.017 34.804 100.39 35.252C100.773 35.6907 100.964 36.3393 100.964 37.198V42H99.7742V37.744C99.7742 37.3893 99.7602 37.114 99.7322 36.918C99.7135 36.7127 99.6575 36.498 99.5642 36.274C99.4708 36.0407 99.3122 35.8727 99.0882 35.77C98.8642 35.6673 98.5748 35.616 98.2202 35.616C96.8482 35.616 96.1622 36.484 96.1622 38.22V42H94.9722V34.776H96.0922ZM108.925 39.718C108.561 41.398 107.511 42.238 105.775 42.238C104.711 42.238 103.876 41.9067 103.269 41.244C102.672 40.5813 102.373 39.662 102.373 38.486C102.373 37.3193 102.681 36.3767 103.297 35.658C103.923 34.93 104.735 34.566 105.733 34.566C106.844 34.566 107.665 34.944 108.197 35.7C108.739 36.4467 109.009 37.394 109.009 38.542V38.71H103.577L103.563 38.794C103.563 39.5593 103.764 40.1613 104.165 40.6C104.567 41.0387 105.117 41.258 105.817 41.258C106.34 41.258 106.751 41.1367 107.049 40.894C107.357 40.6513 107.595 40.2593 107.763 39.718H108.925ZM107.777 37.744C107.721 37.0533 107.511 36.5167 107.147 36.134C106.783 35.742 106.303 35.546 105.705 35.546C105.127 35.546 104.646 35.742 104.263 36.134C103.881 36.526 103.652 37.0627 103.577 37.744H107.777ZM114.037 34.608V35.84C113.953 35.8307 113.85 35.826 113.729 35.826C113.346 35.826 113.015 35.8867 112.735 36.008C112.455 36.12 112.231 36.2693 112.063 36.456C111.904 36.6427 111.774 36.876 111.671 37.156C111.568 37.436 111.498 37.716 111.461 37.996C111.433 38.276 111.419 38.5933 111.419 38.948V42H110.229V34.776H111.363V36.33C111.839 35.182 112.73 34.608 114.037 34.608ZM120.295 36.876H119.105C119.03 35.9987 118.442 35.56 117.341 35.56C116.884 35.56 116.524 35.6487 116.263 35.826C116.002 36.0033 115.871 36.2413 115.871 36.54C115.871 36.624 115.88 36.708 115.899 36.792C115.918 36.8667 115.95 36.9367 115.997 37.002C116.053 37.058 116.1 37.1093 116.137 37.156C116.184 37.2027 116.254 37.2493 116.347 37.296C116.45 37.3333 116.524 37.366 116.571 37.394C116.627 37.422 116.72 37.4547 116.851 37.492C116.991 37.52 117.089 37.5433 117.145 37.562C117.201 37.5713 117.308 37.5947 117.467 37.632C117.635 37.6693 117.742 37.6927 117.789 37.702C118.134 37.7767 118.391 37.8373 118.559 37.884C118.736 37.9307 118.974 38.0193 119.273 38.15C119.581 38.2713 119.814 38.402 119.973 38.542C120.132 38.6727 120.272 38.8593 120.393 39.102C120.524 39.3353 120.589 39.6013 120.589 39.9C120.589 40.6 120.314 41.1647 119.763 41.594C119.222 42.014 118.498 42.224 117.593 42.224C116.613 42.224 115.857 42.0093 115.325 41.58C114.802 41.1507 114.522 40.53 114.485 39.718H115.661C115.726 40.7353 116.38 41.244 117.621 41.244C118.153 41.244 118.578 41.1367 118.895 40.922C119.222 40.698 119.385 40.404 119.385 40.04C119.385 39.7973 119.301 39.5967 119.133 39.438C118.965 39.2793 118.778 39.1673 118.573 39.102C118.368 39.0273 118.074 38.9433 117.691 38.85C117.635 38.8407 117.593 38.8313 117.565 38.822C117.481 38.8033 117.299 38.766 117.019 38.71C116.748 38.6447 116.552 38.5933 116.431 38.556C116.31 38.5187 116.132 38.4627 115.899 38.388C115.675 38.304 115.507 38.22 115.395 38.136C115.283 38.0427 115.157 37.9307 115.017 37.8C114.886 37.66 114.793 37.5013 114.737 37.324C114.681 37.1373 114.653 36.9273 114.653 36.694C114.653 36.0407 114.9 35.5227 115.395 35.14C115.899 34.7573 116.571 34.566 117.411 34.566C118.26 34.566 118.951 34.7667 119.483 35.168C120.024 35.5693 120.295 36.1387 120.295 36.876ZM123.123 32.032V35.798C123.655 34.9953 124.444 34.594 125.489 34.594C127.113 34.594 127.925 35.4153 127.925 37.058V42H126.735V37.338C126.735 36.7873 126.618 36.3673 126.385 36.078C126.161 35.7793 125.75 35.63 125.153 35.63C124.425 35.63 123.902 35.8633 123.585 36.33C123.277 36.7967 123.123 37.464 123.123 38.332V42H121.933V32.032H123.123ZM130.972 32.032V33.488H129.768V32.032H130.972ZM130.972 34.776V42H129.768V34.776H130.972ZM133.936 34.776V35.798C134.459 34.9673 135.271 34.552 136.372 34.552C137.38 34.552 138.178 34.8927 138.766 35.574C139.363 36.2553 139.662 37.1793 139.662 38.346C139.662 39.5127 139.368 40.446 138.78 41.146C138.201 41.8367 137.417 42.182 136.428 42.182C135.392 42.182 134.585 41.7853 134.006 40.992V44.786H132.816V34.776H133.936ZM136.19 35.546C135.499 35.546 134.953 35.798 134.552 36.302C134.16 36.7967 133.964 37.4827 133.964 38.36C133.964 39.2373 134.165 39.928 134.566 40.432C134.977 40.9267 135.532 41.174 136.232 41.174C136.913 41.174 137.45 40.922 137.842 40.418C138.234 39.914 138.43 39.228 138.43 38.36C138.43 37.4827 138.229 36.7967 137.828 36.302C137.436 35.798 136.89 35.546 136.19 35.546Z" fill="white"/>
<defs>
<linearGradient id="paint0_linear" x1="4.88294e-06" y1="13.062" x2="138.105" y2="13.062" gradientUnits="userSpaceOnUse">
<stop stop-color="#E53012"/>
<stop offset="0.448" stop-color="#E53012"/>
<stop offset="0.962" stop-color="#EB6408"/>
</linearGradient>
</defs>
</svg>
