<svg width="101" height="50" viewBox="0 0 101 50" fill="none" xmlns="http://www.w3.org/2000/svg">
<path fill-rule="evenodd" clip-rule="evenodd" d="M0 8.15972V16.3194H8.41667H16.8333V33.1597C16.8333 44.2708 16.893 50 17.0087 50C17.1051 50 17.184 49.9219 17.184 49.8264C17.184 49.7132 19.9896 49.6528 25.25 49.6528H33.316V33.2342C33.316 19.2361 33.353 16.779 33.5665 16.5675C33.7766 16.3595 35.1629 16.3194 42.1586 16.3194H50.5V8.15972V0H25.25H0V8.15972ZM67.684 8.15972V16.3194H84.342H101V8.15972V0H84.342H67.684V8.15972ZM50.5 33.3333C50.5 44.3286 50.5596 50 50.6753 50C50.7718 50 50.8507 49.9219 50.8507 49.8264C50.8507 49.7115 59.3258 49.6528 75.9253 49.6528H101V41.4931V33.3333H84.1667H67.3333V25V16.6667H58.9167H50.5V33.3333Z" fill="#F0ABA0"/>
</svg>
