<svg width="25" height="25" viewBox="0 0 25 25" fill="none" xmlns="http://www.w3.org/2000/svg">
<path d="M8.144 21.888C16.989 21.888 21.826 14.56 21.826 8.20598C21.826 7.99798 21.822 7.79098 21.812 7.58498C22.7531 6.90397 23.5655 6.06081 24.211 5.09498C23.3337 5.484 22.403 5.73917 21.45 5.85198C22.4538 5.25089 23.2051 4.3056 23.564 3.19198C22.6201 3.75186 21.5877 4.14652 20.511 4.35898C19.7869 3.58582 18.8278 3.0733 17.7827 2.90099C16.7375 2.72867 15.6647 2.9062 14.7307 3.406C13.7967 3.90581 13.0539 4.69994 12.6175 5.66514C12.181 6.63034 12.0754 7.71262 12.317 8.74398C10.4046 8.64859 8.53363 8.15199 6.82564 7.28645C5.11764 6.42091 3.61081 5.20578 2.403 3.71998C1.97627 4.45394 1.75196 5.28799 1.753 6.13698C1.753 7.80498 2.601 9.27798 3.893 10.14C3.12892 10.1168 2.3816 9.91035 1.714 9.53798V9.59998C1.7142 10.7103 2.09849 11.7863 2.80169 12.6455C3.50488 13.5047 4.48367 14.0942 5.572 14.314C4.86366 14.5062 4.12081 14.5342 3.4 14.396C3.70713 15.3515 4.30523 16.1871 5.11065 16.786C5.91607 17.3848 6.88852 17.717 7.892 17.736C6.18869 19.0727 4.08521 19.7976 1.92 19.794C1.532 19.794 1.149 19.772 0.771999 19.728C2.97101 21.1408 5.53026 21.8906 8.144 21.888Z" fill="white"/>
</svg>
