<svg width="220" height="45" viewBox="0 0 220 45" fill="none" xmlns="http://www.w3.org/2000/svg">
<path fill-rule="evenodd" clip-rule="evenodd" d="M0 22.5V45H21.9569H43.9139V22.5V0H21.9569H0V22.5ZM87.8278 22.5V45H109.785H131.742V22.5V0H109.785H87.8278V22.5ZM176.086 22.5V45H198.043H220V22.5V0H198.043H176.086V22.5ZM9.68689 7.2439C9.68689 7.36463 9.73532 7.46341 9.79452 7.46341C9.85436 7.46341 9.90215 7.75613 9.90215 8.12195C9.90215 8.48777 9.94994 8.78049 10.0098 8.78049C10.0696 8.78049 10.1174 9.07321 10.1174 9.43902C10.1174 9.80484 10.1652 10.0976 10.225 10.0976C10.2849 10.0976 10.3327 10.3903 10.3327 10.7561C10.3327 11.1219 10.3805 11.4146 10.4403 11.4146C10.4995 11.4146 10.5479 11.6616 10.5479 11.9634C10.5479 12.2652 10.5964 12.5122 10.6556 12.5122C10.7154 12.5122 10.7632 12.8049 10.7632 13.1707C10.7632 13.5365 10.811 13.8293 10.8708 13.8293C10.9307 13.8293 10.9785 14.122 10.9785 14.4878C10.9785 14.8536 11.0263 15.1463 11.0861 15.1463C11.1459 15.1463 11.1937 15.4391 11.1937 15.8049C11.1937 16.1707 11.2415 16.4634 11.3014 16.4634C11.3606 16.4634 11.409 16.7104 11.409 17.0122C11.409 17.314 11.4574 17.561 11.5166 17.561C11.5765 17.561 11.6243 17.8537 11.6243 18.2195C11.6243 18.5853 11.6721 18.878 11.7319 18.878C11.7917 18.878 11.8395 19.1708 11.8395 19.5366C11.8395 19.9024 11.8873 20.1951 11.9472 20.1951C12.007 20.1951 12.0548 20.4878 12.0548 20.8537C12.0548 21.2195 12.1026 21.5122 12.1624 21.5122C12.2216 21.5122 12.2701 21.7591 12.2701 22.061C12.2701 22.3628 12.3185 22.6098 12.3777 22.6098C12.4375 22.6098 12.4853 22.9025 12.4853 23.2683C12.4853 23.6341 12.5331 23.9268 12.593 23.9268C12.6528 23.9268 12.7006 24.2195 12.7006 24.5854C12.7006 24.9512 12.7484 25.2439 12.8082 25.2439C12.8681 25.2439 12.9159 25.5366 12.9159 25.9024C12.9159 26.2683 12.9636 26.561 13.0235 26.561C13.0827 26.561 13.1311 26.8079 13.1311 27.1098C13.1311 27.4116 13.1796 27.6585 13.2387 27.6585C13.2986 27.6585 13.3464 27.9513 13.3464 28.3171C13.3464 28.6829 13.3942 28.9756 13.454 28.9756C13.5139 28.9756 13.5616 29.2683 13.5616 29.6341C13.5616 30 13.6094 30.2927 13.6693 30.2927C13.7285 30.2927 13.7769 30.4902 13.7769 30.7317C13.7769 30.9732 13.8253 31.1707 13.8845 31.1707C13.9437 31.1707 13.9922 31.0226 13.9922 30.8415C13.9922 30.6604 14.0406 30.5122 14.0998 30.5122C14.159 30.5122 14.2074 30.3146 14.2074 30.0732C14.2074 29.8317 14.2559 29.6341 14.3151 29.6341C14.3743 29.6341 14.4227 29.3872 14.4227 29.0854C14.4227 28.7835 14.4711 28.5366 14.5303 28.5366C14.5895 28.5366 14.638 28.2896 14.638 27.9878C14.638 27.686 14.6864 27.439 14.7456 27.439C14.8048 27.439 14.8532 27.2415 14.8532 27C14.8532 26.7585 14.9017 26.561 14.9609 26.561C15.0201 26.561 15.0685 26.314 15.0685 26.0122C15.0685 25.7104 15.1169 25.4634 15.1761 25.4634C15.2353 25.4634 15.2838 25.2659 15.2838 25.0244C15.2838 24.7829 15.3322 24.5854 15.3914 24.5854C15.4506 24.5854 15.499 24.3384 15.499 24.0366C15.499 23.7348 15.5475 23.4878 15.6067 23.4878C15.6659 23.4878 15.7143 23.2902 15.7143 23.0488C15.7143 22.8073 15.7627 22.6098 15.8219 22.6098C15.8811 22.6098 15.9296 22.3628 15.9296 22.061C15.9296 21.7591 15.978 21.5122 16.0372 21.5122C16.0964 21.5122 16.1448 21.2652 16.1448 20.9634C16.1448 20.6616 16.1932 20.4146 16.2524 20.4146C16.3116 20.4146 16.3601 20.2171 16.3601 19.9756C16.3601 19.7341 16.4085 19.5366 16.4677 19.5366C16.5269 19.5366 16.5753 19.2896 16.5753 18.9878C16.5753 18.686 16.6238 18.439 16.683 18.439C16.7422 18.439 16.7906 18.2415 16.7906 18C16.7906 17.7585 16.839 17.561 16.8982 17.561C16.9574 17.561 17.0059 17.314 17.0059 17.0122C17.0059 16.7104 17.0543 16.4634 17.1135 16.4634C17.1727 16.4634 17.2211 16.2165 17.2211 15.9146C17.2211 15.6128 17.2696 15.3659 17.3288 15.3659C17.388 15.3659 17.4364 15.1683 17.4364 14.9268C17.4364 14.6854 17.4848 14.4878 17.544 14.4878C17.6032 14.4878 17.6517 14.2409 17.6517 13.939C17.6517 13.6372 17.7001 13.3902 17.7593 13.3902C17.8185 13.3902 17.8669 13.1927 17.8669 12.9512C17.8669 12.7098 17.9154 12.5122 17.9746 12.5122C18.0338 12.5122 18.0822 12.2652 18.0822 11.9634C18.0822 11.6616 18.1306 11.4146 18.1898 11.4146C18.249 11.4146 18.2975 11.1677 18.2975 10.8659C18.2975 10.564 18.3459 10.3171 18.4051 10.3171C18.4643 10.3171 18.5127 10.1195 18.5127 9.87805C18.5127 9.63659 18.5612 9.43902 18.6204 9.43902C18.6796 9.43902 18.728 9.19207 18.728 8.89024C18.728 8.58841 18.7764 8.34146 18.8356 8.34146C18.8948 8.34146 18.9432 8.26573 18.9432 8.17321C18.9432 7.95468 19.6403 7.2439 19.8546 7.2439C19.9453 7.2439 20.0196 7.19451 20.0196 7.13415C20.0196 7.06401 20.9524 7.02439 22.6027 7.02439C24.2531 7.02439 25.1859 7.06401 25.1859 7.13415C25.1859 7.19451 25.262 7.2439 25.355 7.2439C25.5725 7.2439 25.8317 7.5082 25.8317 7.73001C25.8317 7.82484 25.8801 7.90244 25.9393 7.90244C25.9985 7.90244 26.047 8.00122 26.047 8.12195C26.047 8.24268 26.0954 8.34146 26.1546 8.34146C26.2138 8.34146 26.2622 8.58841 26.2622 8.89024C26.2622 9.19207 26.3107 9.43902 26.3699 9.43902C26.4291 9.43902 26.4775 9.68598 26.4775 9.9878C26.4775 10.2896 26.5259 10.5366 26.5851 10.5366C26.6443 10.5366 26.6928 10.7341 26.6928 10.9756C26.6928 11.2171 26.7412 11.4146 26.8004 11.4146C26.8596 11.4146 26.908 11.6616 26.908 11.9634C26.908 12.2652 26.9565 12.5122 27.0157 12.5122C27.0749 12.5122 27.1233 12.7098 27.1233 12.9512C27.1233 13.1927 27.1717 13.3902 27.2309 13.3902C27.2901 13.3902 27.3386 13.6372 27.3386 13.939C27.3386 14.2409 27.387 14.4878 27.4462 14.4878C27.5054 14.4878 27.5538 14.7348 27.5538 15.0366C27.5538 15.3384 27.6022 15.5854 27.6614 15.5854C27.7206 15.5854 27.7691 15.7829 27.7691 16.0244C27.7691 16.2659 27.8175 16.4634 27.8767 16.4634C27.9359 16.4634 27.9843 16.7104 27.9843 17.0122C27.9843 17.314 28.0328 17.561 28.092 17.561C28.1512 17.561 28.1996 17.7585 28.1996 18C28.1996 18.2415 28.248 18.439 28.3072 18.439C28.3664 18.439 28.4149 18.686 28.4149 18.9878C28.4149 19.2896 28.4633 19.5366 28.5225 19.5366C28.5817 19.5366 28.6301 19.7835 28.6301 20.0854C28.6301 20.3872 28.6786 20.6341 28.7378 20.6341C28.797 20.6341 28.8454 20.8317 28.8454 21.0732C28.8454 21.3146 28.8938 21.5122 28.953 21.5122C29.0122 21.5122 29.0607 21.7591 29.0607 22.061C29.0607 22.3628 29.1091 22.6098 29.1683 22.6098C29.2275 22.6098 29.2759 22.8073 29.2759 23.0488C29.2759 23.2902 29.3244 23.4878 29.3836 23.4878C29.4428 23.4878 29.4912 23.7348 29.4912 24.0366C29.4912 24.3384 29.5396 24.5854 29.5988 24.5854C29.658 24.5854 29.7065 24.8323 29.7065 25.1341C29.7065 25.436 29.7549 25.6829 29.8141 25.6829C29.8733 25.6829 29.9217 25.8805 29.9217 26.122C29.9217 26.3634 29.9702 26.561 30.0294 26.561C30.0886 26.561 30.137 26.8079 30.137 27.1098C30.137 27.4116 30.1854 27.6585 30.2446 27.6585C30.3038 27.6585 30.3523 27.8561 30.3523 28.0976C30.3523 28.339 30.4007 28.5366 30.4599 28.5366C30.5191 28.5366 30.5675 28.7835 30.5675 29.0854C30.5675 29.3872 30.6159 29.6341 30.6751 29.6341C30.7343 29.6341 30.7828 29.8811 30.7828 30.1829C30.7828 30.4848 30.8312 30.7317 30.8904 30.7317C30.9496 30.7317 30.998 30.8305 30.998 30.9512C30.998 31.072 31.0465 31.1707 31.1057 31.1707C31.1649 31.1707 31.2133 30.9238 31.2133 30.622C31.2133 30.3201 31.2617 30.0732 31.3209 30.0732C31.3801 30.0732 31.4286 29.8262 31.4286 29.5244C31.4286 29.2226 31.477 28.9756 31.5362 28.9756C31.596 28.9756 31.6438 28.6829 31.6438 28.3171C31.6438 27.9513 31.6916 27.6585 31.7515 27.6585C31.8113 27.6585 31.8591 27.3658 31.8591 27C31.8591 26.6342 31.9069 26.3415 31.9667 26.3415C32.0266 26.3415 32.0744 26.0487 32.0744 25.6829C32.0744 25.3171 32.1222 25.0244 32.182 25.0244C32.2412 25.0244 32.2896 24.7774 32.2896 24.4756C32.2896 24.1738 32.3381 23.9268 32.3973 23.9268C32.4571 23.9268 32.5049 23.6341 32.5049 23.2683C32.5049 22.9025 32.5527 22.6098 32.6125 22.6098C32.6724 22.6098 32.7202 22.317 32.7202 21.9512C32.7202 21.5854 32.7679 21.2927 32.8278 21.2927C32.8876 21.2927 32.9354 21 32.9354 20.6341C32.9354 20.2683 32.9832 19.9756 33.0431 19.9756C33.1022 19.9756 33.1507 19.7287 33.1507 19.4268C33.1507 19.125 33.1991 18.878 33.2583 18.878C33.3182 18.878 33.3659 18.5853 33.3659 18.2195C33.3659 17.8537 33.4137 17.561 33.4736 17.561C33.5334 17.561 33.5812 17.2683 33.5812 16.9024C33.5812 16.5366 33.629 16.2439 33.6888 16.2439C33.748 16.2439 33.7965 15.997 33.7965 15.6951C33.7965 15.3933 33.8449 15.1463 33.9041 15.1463C33.964 15.1463 34.0117 14.8536 34.0117 14.4878C34.0117 14.122 34.0595 13.8293 34.1194 13.8293C34.1792 13.8293 34.227 13.5365 34.227 13.1707C34.227 12.8049 34.2748 12.5122 34.3346 12.5122C34.3945 12.5122 34.4423 12.2195 34.4423 11.8537C34.4423 11.4878 34.4901 11.1951 34.5499 11.1951C34.6091 11.1951 34.6575 10.9482 34.6575 10.6463C34.6575 10.3445 34.706 10.0976 34.7652 10.0976C34.825 10.0976 34.8728 9.80484 34.8728 9.43902C34.8728 9.07321 34.9206 8.78049 34.9804 8.78049C35.0403 8.78049 35.0881 8.48777 35.0881 8.12195C35.0881 7.75613 35.1358 7.46341 35.1957 7.46341C35.2549 7.46341 35.3033 7.36463 35.3033 7.2439C35.3033 7.02999 35.3751 7.02439 38.1018 7.02439H40.9002V7.57317C40.9002 7.875 40.8518 8.12195 40.7926 8.12195C40.7327 8.12195 40.6849 8.41467 40.6849 8.78049C40.6849 9.14631 40.6371 9.43902 40.5773 9.43902C40.5181 9.43902 40.4697 9.68598 40.4697 9.9878C40.4697 10.2896 40.4212 10.5366 40.362 10.5366C40.3022 10.5366 40.2544 10.8293 40.2544 11.1951C40.2544 11.5609 40.2066 11.8537 40.1468 11.8537C40.0876 11.8537 40.0391 12.1006 40.0391 12.4024C40.0391 12.7043 39.9907 12.9512 39.9315 12.9512C39.8717 12.9512 39.8239 13.2439 39.8239 13.6098C39.8239 13.9756 39.7761 14.2683 39.7162 14.2683C39.657 14.2683 39.6086 14.5152 39.6086 14.8171C39.6086 15.1189 39.5602 15.3659 39.501 15.3659C39.4411 15.3659 39.3933 15.6586 39.3933 16.0244C39.3933 16.3902 39.3456 16.6829 39.2857 16.6829C39.2265 16.6829 39.1781 16.9299 39.1781 17.2317C39.1781 17.5335 39.1296 17.7805 39.0704 17.7805C39.0106 17.7805 38.9628 18.0732 38.9628 18.439C38.9628 18.8048 38.915 19.0976 38.8552 19.0976C38.796 19.0976 38.7476 19.3445 38.7476 19.6463C38.7476 19.9482 38.6991 20.1951 38.6399 20.1951C38.5807 20.1951 38.5323 20.4421 38.5323 20.7439C38.5323 21.0457 38.4839 21.2927 38.4247 21.2927C38.3648 21.2927 38.317 21.5854 38.317 21.9512C38.317 22.317 38.2692 22.6098 38.2094 22.6098C38.1502 22.6098 38.1018 22.8567 38.1018 23.1585C38.1018 23.4604 38.0533 23.7073 37.9941 23.7073C37.9343 23.7073 37.8865 24 37.8865 24.3659C37.8865 24.7317 37.8387 25.0244 37.7789 25.0244C37.7197 25.0244 37.6712 25.2713 37.6712 25.5732C37.6712 25.875 37.6228 26.122 37.5636 26.122C37.5038 26.122 37.456 26.4147 37.456 26.7805C37.456 27.1463 37.4082 27.439 37.3483 27.439C37.2891 27.439 37.2407 27.686 37.2407 27.9878C37.2407 28.2896 37.1923 28.5366 37.1331 28.5366C37.0732 28.5366 37.0254 28.8293 37.0254 29.1951C37.0254 29.5609 36.9777 29.8537 36.9178 29.8537C36.8586 29.8537 36.8102 30.1006 36.8102 30.4024C36.8102 30.7043 36.7617 30.9512 36.7025 30.9512C36.6427 30.9512 36.5949 31.2439 36.5949 31.6098C36.5949 31.9756 36.5471 32.2683 36.4873 32.2683C36.4281 32.2683 36.3796 32.5152 36.3796 32.8171C36.3796 33.1189 36.3312 33.3659 36.272 33.3659C36.2122 33.3659 36.1644 33.6586 36.1644 34.0244C36.1644 34.3902 36.1166 34.6829 36.0568 34.6829C35.9976 34.6829 35.9491 34.9299 35.9491 35.2317C35.9491 35.5335 35.9007 35.7805 35.8415 35.7805C35.7823 35.7805 35.7339 36.0274 35.7339 36.3293C35.7339 36.6311 35.6854 36.878 35.6262 36.878C35.567 36.878 35.5186 36.9538 35.5186 37.0463C35.5186 37.1389 35.3507 37.3859 35.1454 37.5951L34.7724 37.9756H31.4859C29.3668 37.9756 28.1996 37.9366 28.1996 37.8659C28.1996 37.8055 28.1235 37.7561 28.0305 37.7561C27.7764 37.7561 27.5538 37.4779 27.5538 37.1602C27.5538 37.005 27.5054 36.878 27.4462 36.878C27.387 36.878 27.3386 36.6805 27.3386 36.439C27.3386 36.1976 27.2901 36 27.2309 36C27.1717 36 27.1233 35.753 27.1233 35.4512C27.1233 35.1494 27.0749 34.9024 27.0157 34.9024C26.9565 34.9024 26.908 34.7049 26.908 34.4634C26.908 34.222 26.8596 34.0244 26.8004 34.0244C26.7412 34.0244 26.6928 33.7774 26.6928 33.4756C26.6928 33.1738 26.6443 32.9268 26.5851 32.9268C26.5259 32.9268 26.4775 32.7293 26.4775 32.4878C26.4775 32.2463 26.4291 32.0488 26.3699 32.0488C26.3107 32.0488 26.2622 31.8018 26.2622 31.5C26.2622 31.1982 26.2138 30.9512 26.1546 30.9512C26.0954 30.9512 26.047 30.7537 26.047 30.5122C26.047 30.2707 25.9985 30.0732 25.9393 30.0732C25.8801 30.0732 25.8317 29.8262 25.8317 29.5244C25.8317 29.2226 25.7833 28.9756 25.7241 28.9756C25.6649 28.9756 25.6164 28.778 25.6164 28.5366C25.6164 28.2951 25.568 28.0976 25.5088 28.0976C25.4496 28.0976 25.4012 27.8506 25.4012 27.5488C25.4012 27.247 25.3527 27 25.2935 27C25.2343 27 25.1859 26.8024 25.1859 26.561C25.1859 26.3195 25.1375 26.122 25.0783 26.122C25.0191 26.122 24.9706 25.875 24.9706 25.5732C24.9706 25.2713 24.9222 25.0244 24.863 25.0244C24.8038 25.0244 24.7554 24.8268 24.7554 24.5854C24.7554 24.3439 24.7069 24.1463 24.6477 24.1463C24.5886 24.1463 24.5401 23.8994 24.5401 23.5976C24.5401 23.2957 24.4917 23.0488 24.4325 23.0488C24.3733 23.0488 24.3249 22.8512 24.3249 22.6098C24.3249 22.3683 24.2764 22.1707 24.2172 22.1707C24.158 22.1707 24.1096 21.9238 24.1096 21.622C24.1096 21.3201 24.0612 21.0732 24.002 21.0732C23.9428 21.0732 23.8943 20.8756 23.8943 20.6341C23.8943 20.3927 23.8459 20.1951 23.7867 20.1951C23.7275 20.1951 23.6791 19.9482 23.6791 19.6463C23.6791 19.3445 23.6306 19.0976 23.5714 19.0976C23.5122 19.0976 23.4638 18.8506 23.4638 18.5488C23.4638 18.247 23.4154 18 23.3562 18C23.297 18 23.2485 17.8024 23.2485 17.561C23.2485 17.3195 23.2001 17.122 23.1409 17.122C23.0817 17.122 23.0333 16.875 23.0333 16.5732C23.0333 16.2713 22.9848 16.0244 22.9256 16.0244C22.8664 16.0244 22.818 15.8762 22.818 15.6951C22.818 15.514 22.7696 15.3659 22.7104 15.3659C22.6512 15.3659 22.6027 15.514 22.6027 15.6951C22.6027 15.8762 22.5543 16.0244 22.4951 16.0244C22.4359 16.0244 22.3875 16.2713 22.3875 16.5732C22.3875 16.875 22.339 17.122 22.2798 17.122C22.2206 17.122 22.1722 17.3195 22.1722 17.561C22.1722 17.8024 22.1238 18 22.0646 18C22.0054 18 21.9569 18.247 21.9569 18.5488C21.9569 18.8506 21.9085 19.0976 21.8493 19.0976C21.7901 19.0976 21.7417 19.2951 21.7417 19.5366C21.7417 19.778 21.6932 19.9756 21.6341 19.9756C21.5749 19.9756 21.5264 20.2226 21.5264 20.5244C21.5264 20.8262 21.478 21.0732 21.4188 21.0732C21.3596 21.0732 21.3112 21.3201 21.3112 21.622C21.3112 21.9238 21.2627 22.1707 21.2035 22.1707C21.1443 22.1707 21.0959 22.3683 21.0959 22.6098C21.0959 22.8512 21.0475 23.0488 20.9883 23.0488C20.9291 23.0488 20.8806 23.2957 20.8806 23.5976C20.8806 23.8994 20.8322 24.1463 20.773 24.1463C20.7138 24.1463 20.6654 24.3439 20.6654 24.5854C20.6654 24.8268 20.6169 25.0244 20.5577 25.0244C20.4985 25.0244 20.4501 25.2713 20.4501 25.5732C20.4501 25.875 20.4017 26.122 20.3425 26.122C20.2833 26.122 20.2348 26.3195 20.2348 26.561C20.2348 26.8024 20.1864 27 20.1272 27C20.068 27 20.0196 27.247 20.0196 27.5488C20.0196 27.8506 19.9711 28.0976 19.9119 28.0976C19.8527 28.0976 19.8043 28.2951 19.8043 28.5366C19.8043 28.778 19.7559 28.9756 19.6967 28.9756C19.6375 28.9756 19.589 29.2226 19.589 29.5244C19.589 29.8262 19.5406 30.0732 19.4814 30.0732C19.4222 30.0732 19.3738 30.2707 19.3738 30.5122C19.3738 30.7537 19.3253 30.9512 19.2661 30.9512C19.2069 30.9512 19.1585 31.1982 19.1585 31.5C19.1585 31.8018 19.1101 32.0488 19.0509 32.0488C18.9917 32.0488 18.9432 32.2463 18.9432 32.4878C18.9432 32.7293 18.8948 32.9268 18.8356 32.9268C18.7764 32.9268 18.728 33.1738 18.728 33.4756C18.728 33.7774 18.6796 34.0244 18.6204 34.0244C18.5612 34.0244 18.5127 34.222 18.5127 34.4634C18.5127 34.7049 18.4643 34.9024 18.4051 34.9024C18.3459 34.9024 18.2975 35.1494 18.2975 35.4512C18.2975 35.753 18.249 36 18.1898 36C18.1306 36 18.0822 36.1976 18.0822 36.439C18.0822 36.6805 18.0338 36.878 17.9746 36.878C17.9154 36.878 17.8669 36.9538 17.8669 37.0463C17.8669 37.1389 17.699 37.3859 17.4938 37.5951L17.1207 37.9756H13.7266C11.5358 37.9756 10.3327 37.9368 10.3327 37.8659C10.3327 37.8055 10.2566 37.7561 10.1636 37.7561C9.90947 37.7561 9.68689 37.4779 9.68689 37.1602C9.68689 37.005 9.63845 36.878 9.57926 36.878C9.52006 36.878 9.47162 36.6805 9.47162 36.439C9.47162 36.1976 9.42319 36 9.36399 36C9.30479 36 9.25636 35.753 9.25636 35.4512C9.25636 35.1494 9.20793 34.9024 9.14873 34.9024C9.08953 34.9024 9.0411 34.6555 9.0411 34.3537C9.0411 34.0518 8.99266 33.8049 8.93346 33.8049C8.87427 33.8049 8.82583 33.5579 8.82583 33.2561C8.82583 32.9543 8.7774 32.7073 8.7182 32.7073C8.659 32.7073 8.61057 32.4604 8.61057 32.1585C8.61057 31.8567 8.56213 31.6098 8.50294 31.6098C8.44374 31.6098 8.3953 31.3628 8.3953 31.061C8.3953 30.7591 8.34687 30.5122 8.28767 30.5122C8.22847 30.5122 8.18004 30.2652 8.18004 29.9634C8.18004 29.6616 8.1316 29.4146 8.07241 29.4146C8.01321 29.4146 7.96478 29.2171 7.96478 28.9756C7.96478 28.7341 7.91634 28.5366 7.85714 28.5366C7.79795 28.5366 7.74951 28.2896 7.74951 27.9878C7.74951 27.686 7.70108 27.439 7.64188 27.439C7.58268 27.439 7.53425 27.1921 7.53425 26.8902C7.53425 26.5884 7.48581 26.3415 7.42661 26.3415C7.36742 26.3415 7.31898 26.0945 7.31898 25.7927C7.31898 25.4909 7.27055 25.2439 7.21135 25.2439C7.15215 25.2439 7.10372 24.997 7.10372 24.6951C7.10372 24.3933 7.05528 24.1463 6.99609 24.1463C6.93689 24.1463 6.88845 23.8994 6.88845 23.5976C6.88845 23.2957 6.84002 23.0488 6.78082 23.0488C6.72162 23.0488 6.67319 22.8018 6.67319 22.5C6.67319 22.1982 6.62475 21.9512 6.56556 21.9512C6.50636 21.9512 6.45793 21.7537 6.45793 21.5122C6.45793 21.2707 6.40949 21.0732 6.35029 21.0732C6.2911 21.0732 6.24266 20.8262 6.24266 20.5244C6.24266 20.2226 6.19423 19.9756 6.13503 19.9756C6.07583 19.9756 6.0274 19.7287 6.0274 19.4268C6.0274 19.125 5.97896 18.878 5.91976 18.878C5.86057 18.878 5.81213 18.6311 5.81213 18.3293C5.81213 18.0274 5.7637 17.7805 5.7045 17.7805C5.6453 17.7805 5.59687 17.5335 5.59687 17.2317C5.59687 16.9299 5.54843 16.6829 5.48924 16.6829C5.43004 16.6829 5.3816 16.436 5.3816 16.1341C5.3816 15.8323 5.33317 15.5854 5.27397 15.5854C5.21478 15.5854 5.16634 15.3384 5.16634 15.0366C5.16634 14.7348 5.11791 14.4878 5.05871 14.4878C4.99951 14.4878 4.95108 14.2902 4.95108 14.0488C4.95108 13.8073 4.90264 13.6098 4.84344 13.6098C4.78425 13.6098 4.73581 13.3628 4.73581 13.061C4.73581 12.7591 4.68738 12.5122 4.62818 12.5122C4.56898 12.5122 4.52055 12.2652 4.52055 11.9634C4.52055 11.6616 4.47211 11.4146 4.41292 11.4146C4.35372 11.4146 4.30528 11.1677 4.30528 10.8659C4.30528 10.564 4.25685 10.3171 4.19765 10.3171C4.13845 10.3171 4.09002 10.0701 4.09002 9.76829C4.09002 9.46646 4.04158 9.21951 3.98239 9.21951C3.92319 9.21951 3.87476 8.97256 3.87476 8.67073C3.87476 8.3689 3.82632 8.12195 3.76712 8.12195C3.70793 8.12195 3.65949 7.875 3.65949 7.57317V7.02439H6.67319C9.6151 7.02439 9.68689 7.02966 9.68689 7.2439ZM55.5382 9.65854V12.2927H59.1977H62.8571V22.6098V32.9268H59.1977H55.5382V35.4512V37.9756H65.9785H76.4188V35.4512V32.9268H72.6517H68.8845V22.6098V12.2927H72.4979C75.4859 12.2927 76.1379 12.2656 76.265 12.1358C76.3892 12.0093 76.4188 11.5024 76.4188 9.5017V7.02439H65.9785H55.5382V9.65854ZM118.18 7.13415C118.18 7.19451 118.422 7.2439 118.718 7.2439C119.014 7.2439 119.256 7.29329 119.256 7.35366C119.256 7.41402 119.402 7.46341 119.579 7.46341C119.757 7.46341 119.902 7.5128 119.902 7.57317C119.902 7.63354 119.999 7.68293 120.117 7.68293C120.236 7.68293 120.333 7.73232 120.333 7.79268C120.333 7.85305 120.406 7.90244 120.496 7.90244C120.709 7.90244 122.055 9.27483 122.055 9.49182C122.055 9.58357 122.103 9.65854 122.162 9.65854C122.222 9.65854 122.27 9.75732 122.27 9.87805C122.27 9.99878 122.318 10.0976 122.378 10.0976C122.437 10.0976 122.485 10.2457 122.485 10.4268C122.485 10.6079 122.534 10.7561 122.593 10.7561C122.652 10.7561 122.701 10.9537 122.701 11.1951C122.701 11.4366 122.749 11.6341 122.808 11.6341C122.871 11.6341 122.916 12 122.916 12.5122C122.916 13.0244 122.961 13.3902 123.023 13.3902C123.092 13.3902 123.131 14.1951 123.131 15.5854C123.131 16.9756 123.092 17.7805 123.023 17.7805C122.962 17.7805 122.916 18.1098 122.916 18.5488C122.916 18.9878 122.87 19.3171 122.808 19.3171C122.749 19.3171 122.701 19.5146 122.701 19.7561C122.701 19.9976 122.652 20.1951 122.593 20.1951C122.534 20.1951 122.485 20.2939 122.485 20.4146C122.485 20.5354 122.437 20.6341 122.378 20.6341C122.318 20.6341 122.27 20.7329 122.27 20.8537C122.27 20.9744 122.222 21.0732 122.162 21.0732C122.103 21.0732 122.055 21.1481 122.055 21.2399C122.055 21.4569 120.709 22.8293 120.496 22.8293C120.406 22.8293 120.333 22.8787 120.333 22.939C120.333 22.9994 120.236 23.0488 120.117 23.0488C119.999 23.0488 119.902 23.0982 119.902 23.1585C119.902 23.2189 119.757 23.2683 119.579 23.2683C119.402 23.2683 119.256 23.3177 119.256 23.378C119.256 23.4384 119.063 23.4878 118.826 23.4878C118.589 23.4878 118.395 23.516 118.395 23.5505C118.395 23.7341 118.75 23.9268 119.087 23.9268C119.299 23.9268 119.472 23.9762 119.472 24.0366C119.472 24.097 119.617 24.1463 119.795 24.1463C119.972 24.1463 120.117 24.1957 120.117 24.2561C120.117 24.3165 120.214 24.3659 120.333 24.3659C120.451 24.3659 120.548 24.4152 120.548 24.4756C120.548 24.536 120.622 24.5854 120.712 24.5854C120.926 24.5854 121.84 25.5171 121.84 25.735C121.84 25.827 121.888 25.9024 121.947 25.9024C122.006 25.9024 122.055 26.0012 122.055 26.122C122.055 26.2427 122.103 26.3415 122.162 26.3415C122.222 26.3415 122.27 26.539 122.27 26.7805C122.27 27.0219 122.318 27.2195 122.378 27.2195C122.438 27.2195 122.485 27.5122 122.485 27.878C122.485 28.2439 122.533 28.5366 122.593 28.5366C122.662 28.5366 122.701 29.5976 122.701 31.5C122.701 33.4024 122.739 34.4634 122.808 34.4634C122.874 34.4634 122.916 34.9756 122.916 35.7805C122.916 36.5853 122.958 37.0976 123.023 37.0976C123.083 37.0976 123.131 37.2457 123.131 37.4268V37.7561H120.117H117.104V37.3171C117.104 37.0756 117.055 36.878 116.996 36.878C116.935 36.878 116.888 36.5488 116.888 36.1098C116.888 35.6707 116.842 35.3415 116.781 35.3415C116.715 35.3415 116.673 34.8292 116.673 34.0244C116.673 33.2196 116.631 32.7073 116.566 32.7073C116.497 32.7073 116.458 31.8293 116.458 30.2927C116.458 28.7561 116.419 27.878 116.35 27.878C116.291 27.878 116.243 27.7299 116.243 27.5488C116.243 27.3677 116.194 27.2195 116.135 27.2195C116.076 27.2195 116.027 27.1419 116.027 27.0471C116.027 26.8253 115.768 26.561 115.551 26.561C115.458 26.561 115.382 26.5116 115.382 26.4512C115.382 26.3909 115.285 26.3415 115.166 26.3415C115.048 26.3415 114.951 26.2921 114.951 26.2317C114.951 26.1713 114.757 26.122 114.521 26.122C114.284 26.122 114.09 26.0726 114.09 26.0122C114.09 25.9406 112.332 25.9024 109.031 25.9024H103.973V31.939V37.9756H100.851H97.7299V22.5V7.02439H107.955C114.7 7.02439 118.18 7.06171 118.18 7.13415ZM140.137 9.65854V12.2927H142.182H144.227V22.6098V32.9268H142.182H140.137V35.4512V37.9756H153.268H166.399V32.8642C166.399 28.5805 166.374 27.7272 166.245 27.5959C166.121 27.4684 165.596 27.439 163.447 27.439H160.802V30.1829V32.9268H155.421H150.039V28.7561V24.5854H154.237H158.434V22.2178C158.434 20.3122 158.404 19.8195 158.281 19.6934C158.153 19.563 157.444 19.5366 154.083 19.5366H150.039V15.9146V12.2927H155.313H160.587V14.5976V16.9024H163.386H166.184V11.9634V7.02439H153.16H140.137V9.65854ZM203.209 7.13415C203.209 7.19682 203.532 7.2439 203.963 7.2439C204.393 7.2439 204.716 7.29099 204.716 7.35366C204.716 7.41402 204.958 7.46341 205.254 7.46341C205.55 7.46341 205.793 7.5128 205.793 7.57317C205.793 7.63354 205.938 7.68293 206.115 7.68293C206.293 7.68293 206.438 7.73232 206.438 7.79268C206.438 7.85305 206.584 7.90244 206.761 7.90244C206.939 7.90244 207.084 7.95183 207.084 8.01219C207.084 8.07256 207.17 8.12195 207.276 8.12195C207.381 8.12195 207.537 8.22073 207.622 8.34146C207.708 8.46219 207.864 8.56098 207.969 8.56098C208.074 8.56098 208.16 8.61037 208.16 8.67073C208.16 8.7311 208.234 8.78049 208.324 8.78049C208.523 8.78049 209.883 10.146 209.883 10.3457C209.883 10.424 209.979 10.5593 210.098 10.6463C210.216 10.7334 210.313 10.8924 210.313 10.9999C210.313 11.1072 210.362 11.1951 210.421 11.1951C210.48 11.1951 210.528 11.2939 210.528 11.4146C210.528 11.5354 210.577 11.6341 210.636 11.6341C210.695 11.6341 210.744 11.7329 210.744 11.8537C210.744 11.9744 210.792 12.0732 210.851 12.0732C210.91 12.0732 210.959 12.172 210.959 12.2927C210.959 12.4134 211.007 12.5122 211.067 12.5122C211.126 12.5122 211.174 12.6604 211.174 12.8415C211.174 13.0226 211.223 13.1707 211.282 13.1707C211.341 13.1707 211.389 13.3683 211.389 13.6098C211.389 13.8512 211.438 14.0488 211.497 14.0488C211.556 14.0488 211.605 14.2463 211.605 14.4878C211.605 14.7293 211.653 14.9268 211.712 14.9268C211.772 14.9268 211.82 15.2195 211.82 15.5854C211.82 15.9512 211.868 16.2439 211.928 16.2439C211.993 16.2439 212.035 16.7195 212.035 17.4512C212.035 18.183 212.078 18.6585 212.143 18.6585C212.213 18.6585 212.25 20.0488 212.25 22.6098C212.25 25.1707 212.213 26.561 212.143 26.561C212.078 26.561 212.035 27 212.035 27.6585C212.035 28.3171 211.992 28.7561 211.928 28.7561C211.868 28.7561 211.82 29.0488 211.82 29.4146C211.82 29.7805 211.772 30.0732 211.712 30.0732C211.653 30.0732 211.605 30.3201 211.605 30.622C211.605 30.9238 211.556 31.1707 211.497 31.1707C211.438 31.1707 211.389 31.3189 211.389 31.5C211.389 31.6811 211.341 31.8293 211.282 31.8293C211.223 31.8293 211.174 31.9774 211.174 32.1585C211.174 32.3396 211.126 32.4878 211.067 32.4878C211.007 32.4878 210.959 32.636 210.959 32.8171C210.959 32.9982 210.91 33.1463 210.851 33.1463C210.792 33.1463 210.744 33.2451 210.744 33.3659C210.744 33.4866 210.695 33.5854 210.636 33.5854C210.577 33.5854 210.528 33.6733 210.528 33.7806C210.528 33.8881 210.432 34.0471 210.313 34.1341C210.195 34.2212 210.098 34.3563 210.098 34.4343C210.098 34.634 208.306 36.439 208.108 36.439C208.019 36.439 207.945 36.4884 207.945 36.5488C207.945 36.6091 207.848 36.6585 207.73 36.6585C207.612 36.6585 207.515 36.7079 207.515 36.7683C207.515 36.8287 207.418 36.878 207.299 36.878C207.181 36.878 207.084 36.9274 207.084 36.9878C207.084 37.0482 206.987 37.0976 206.869 37.0976C206.75 37.0976 206.654 37.1469 206.654 37.2073C206.654 37.2677 206.508 37.3171 206.331 37.3171C206.153 37.3171 206.008 37.3665 206.008 37.4268C206.008 37.4872 205.814 37.5366 205.577 37.5366C205.341 37.5366 205.147 37.586 205.147 37.6463C205.147 37.7074 204.86 37.7561 204.501 37.7561C204.142 37.7561 203.855 37.8048 203.855 37.8659C203.855 37.9382 200.734 37.9756 194.706 37.9756H185.558V22.5V7.02439H194.384C200.196 7.02439 203.209 7.06182 203.209 7.13415ZM191.8 22.5V32.7073H196.859C200.16 32.7073 201.918 32.6691 201.918 32.5976C201.918 32.5372 202.16 32.4878 202.456 32.4878C202.752 32.4878 202.994 32.4384 202.994 32.378C202.994 32.3177 203.139 32.2683 203.317 32.2683C203.495 32.2683 203.64 32.2189 203.64 32.1585C203.64 32.0982 203.737 32.0488 203.855 32.0488C203.974 32.0488 204.07 31.9994 204.07 31.939C204.07 31.8787 204.145 31.8293 204.235 31.8293C204.45 31.8293 205.147 31.1185 205.147 30.9C205.147 30.8074 205.195 30.7317 205.254 30.7317C205.314 30.7317 205.362 30.6329 205.362 30.5122C205.362 30.3915 205.41 30.2927 205.47 30.2927C205.529 30.2927 205.577 30.0951 205.577 29.8537C205.577 29.6122 205.626 29.4146 205.685 29.4146C205.745 29.4146 205.793 29.1219 205.793 28.7561C205.793 28.3903 205.84 28.0976 205.9 28.0976C205.971 28.0976 206.008 26.1585 206.008 22.5C206.008 18.8415 205.971 16.9024 205.9 16.9024C205.84 16.9024 205.793 16.6097 205.793 16.2439C205.793 15.8781 205.745 15.5854 205.685 15.5854C205.626 15.5854 205.577 15.3878 205.577 15.1463C205.577 14.9049 205.529 14.7073 205.47 14.7073C205.41 14.7073 205.362 14.6085 205.362 14.4878C205.362 14.3671 205.314 14.2683 205.254 14.2683C205.195 14.2683 205.147 14.1931 205.147 14.1012C205.147 13.8839 204.017 12.7317 203.804 12.7317C203.714 12.7317 203.64 12.6823 203.64 12.622C203.64 12.5616 203.543 12.5122 203.425 12.5122C203.306 12.5122 203.209 12.4628 203.209 12.4024C203.209 12.3307 201.236 12.2927 197.505 12.2927H191.8V22.5ZM103.973 16.7927V21.0732H108.708C111.794 21.0732 113.444 21.1114 113.444 21.1829C113.444 21.2433 113.59 21.2927 113.767 21.2927C113.945 21.2927 114.09 21.2433 114.09 21.1829C114.09 21.1219 114.377 21.0732 114.736 21.0732C115.095 21.0732 115.382 21.0244 115.382 20.9634C115.382 20.903 115.456 20.8537 115.548 20.8537C115.809 20.8537 116.243 20.3435 116.243 20.0354C116.243 19.8818 116.291 19.7561 116.35 19.7561C116.409 19.7561 116.458 19.5585 116.458 19.3171C116.458 19.0756 116.506 18.878 116.566 18.878C116.634 18.878 116.673 18.0732 116.673 16.6829C116.673 15.2926 116.634 14.4878 116.566 14.4878C116.506 14.4878 116.458 14.2902 116.458 14.0488C116.458 13.8073 116.409 13.6098 116.35 13.6098C116.291 13.6098 116.243 13.5335 116.243 13.4402C116.243 13.2206 115.763 12.7317 115.548 12.7317C115.456 12.7317 115.382 12.6823 115.382 12.622C115.382 12.5502 113.408 12.5122 109.677 12.5122H103.973V16.7927Z" fill="#E73E23"/>
</svg>
